ISO-10303-21;
HEADER;
FILE_DESCRIPTION(('Open CASCADE Model'),'2;1');
FILE_NAME('Open CASCADE Shape Model','2026-08-16T12:47:18',('Author'),(
    'Open CASCADE'),'Open CASCADE STEP processor 7.9','Open CASCADE 7.9'
  ,'Unknown');
FILE_SCHEMA(('AUTOMOTIVE_DESIGN { 1 0 10303 214 1 1 1 1 }'));
ENDSEC;
DATA;
#1 = APPLICATION_PROTOCOL_DEFINITION('international standard',
  'automotive_design',2000,#2);
#2 = APPLICATION_CONTEXT(
  'core data for automotive mechanical design processes');
#3 = SHAPE_DEFINITION_REPRESENTATION(#4,#10);
#4 = PRODUCT_DEFINITION_SHAPE('','',#5);
#5 = PRODUCT_DEFINITION('design','',#6,#9);
#6 = PRODUCT_DEFINITION_FORMATION('','',#7);
#7 = PRODUCT('Open CASCADE STEP translator 7.9 14',
  'Open CASCADE STEP translator 7.9 14','',(#8));
#8 = PRODUCT_CONTEXT('',#2,'mechanical');
#9 = PRODUCT_DEFINITION_CONTEXT('part definition',#2,'design');
#10 = ADVANCED_BREP_SHAPE_REPRESENTATION('',(#11,#15),#1629);
#11 = AXIS2_PLACEMENT_3D('',#12,#13,#14);
#12 = CARTESIAN_POINT('',(0.,0.,0.));
#13 = DIRECTION('',(0.,0.,1.));
#14 = DIRECTION('',(1.,0.,-0.));
#15 = MANIFOLD_SOLID_BREP('',#16);
#16 = CLOSED_SHELL('',(#17,#168,#403,#453,#507,#662,#1063,#1090,#1117,
    #1144,#1171,#1213,#1602));
#17 = ADVANCED_FACE('',(#18,#137),#32,.F.);
#18 = FACE_BOUND('',#19,.F.);
#19 = EDGE_LOOP('',(#20,#55,#83,#111));
#20 = ORIENTED_EDGE('',*,*,#21,.F.);
#21 = EDGE_CURVE('',#22,#24,#26,.T.);
#22 = VERTEX_POINT('',#23);
#23 = CARTESIAN_POINT('',(-14.,-6.,14.));
#24 = VERTEX_POINT('',#25);
#25 = CARTESIAN_POINT('',(-14.,6.,14.));
#26 = SURFACE_CURVE('',#27,(#31,#43),.PCURVE_S1.);
#27 = LINE('',#28,#29);
#28 = CARTESIAN_POINT('',(-14.,-8.,14.));
#29 = VECTOR('',#30,1.);
#30 = DIRECTION('',(0.,1.,0.));
#31 = PCURVE('',#32,#37);
#32 = PLANE('',#33);
#33 = AXIS2_PLACEMENT_3D('',#34,#35,#36);
#34 = CARTESIAN_POINT('',(-14.,-8.,0.));
#35 = DIRECTION('',(1.,0.,0.));
#36 = DIRECTION('',(0.,0.,1.));
#37 = DEFINITIONAL_REPRESENTATION('',(#38),#42);
#38 = LINE('',#39,#40);
#39 = CARTESIAN_POINT('',(14.,0.));
#40 = VECTOR('',#41,1.);
#41 = DIRECTION('',(0.,-1.));
#42 = ( GEOMETRIC_REPRESENTATION_CONTEXT(2) 
PARAMETRIC_REPRESENTATION_CONTEXT() REPRESENTATION_CONTEXT('2D SPACE',''
  ) );
#43 = PCURVE('',#44,#49);
#44 = PLANE('',#45);
#45 = AXIS2_PLACEMENT_3D('',#46,#47,#48);
#46 = CARTESIAN_POINT('',(-14.,-8.,14.));
#47 = DIRECTION('',(0.,0.,1.));
#48 = DIRECTION('',(1.,0.,0.));
#49 = DEFINITIONAL_REPRESENTATION('',(#50),#54);
#50 = LINE('',#51,#52);
#51 = CARTESIAN_POINT('',(0.,0.));
#52 = VECTOR('',#53,1.);
#53 = DIRECTION('',(0.,1.));
#54 = ( GEOMETRIC_REPRESENTATION_CONTEXT(2) 
PARAMETRIC_REPRESENTATION_CONTEXT() REPRESENTATION_CONTEXT('2D SPACE',''
  ) );
#55 = ORIENTED_EDGE('',*,*,#56,.F.);
#56 = EDGE_CURVE('',#57,#22,#59,.T.);
#57 = VERTEX_POINT('',#58);
#58 = CARTESIAN_POINT('',(-14.,-6.,0.));
#59 = SURFACE_CURVE('',#60,(#64,#71),.PCURVE_S1.);
#60 = LINE('',#61,#62);
#61 = CARTESIAN_POINT('',(-14.,-6.,0.));
#62 = VECTOR('',#63,1.);
#63 = DIRECTION('',(0.,0.,1.));
#64 = PCURVE('',#32,#65);
#65 = DEFINITIONAL_REPRESENTATION('',(#66),#70);
#66 = LINE('',#67,#68);
#67 = CARTESIAN_POINT('',(0.,-2.));
#68 = VECTOR('',#69,1.);
#69 = DIRECTION('',(1.,0.));
#70 = ( GEOMETRIC_REPRESENTATION_CONTEXT(2) 
PARAMETRIC_REPRESENTATION_CONTEXT() REPRESENTATION_CONTEXT('2D SPACE',''
  ) );
#71 = PCURVE('',#72,#77);
#72 = CYLINDRICAL_SURFACE('',#73,2.);
#73 = AXIS2_PLACEMENT_3D('',#74,#75,#76);
#74 = CARTESIAN_POINT('',(-12.,-6.,0.));
#75 = DIRECTION('',(0.,0.,1.));
#76 = DIRECTION('',(-1.,-0.,0.));
#77 = DEFINITIONAL_REPRESENTATION('',(#78),#82);
#78 = LINE('',#79,#80);
#79 = CARTESIAN_POINT('',(0.,0.));
#80 = VECTOR('',#81,1.);
#81 = DIRECTION('',(0.,1.));
#82 = ( GEOMETRIC_REPRESENTATION_CONTEXT(2) 
PARAMETRIC_REPRESENTATION_CONTEXT() REPRESENTATION_CONTEXT('2D SPACE',''
  ) );
#83 = ORIENTED_EDGE('',*,*,#84,.T.);
#84 = EDGE_CURVE('',#57,#85,#87,.T.);
#85 = VERTEX_POINT('',#86);
#86 = CARTESIAN_POINT('',(-14.,6.,0.));
#87 = SURFACE_CURVE('',#88,(#92,#99),.PCURVE_S1.);
#88 = LINE('',#89,#90);
#89 = CARTESIAN_POINT('',(-14.,-8.,0.));
#90 = VECTOR('',#91,1.);
#91 = DIRECTION('',(0.,1.,0.));
#92 = PCURVE('',#32,#93);
#93 = DEFINITIONAL_REPRESENTATION('',(#94),#98);
#94 = LINE('',#95,#96);
#95 = CARTESIAN_POINT('',(0.,0.));
#96 = VECTOR('',#97,1.);
#97 = DIRECTION('',(0.,-1.));
#98 = ( GEOMETRIC_REPRESENTATION_CONTEXT(2) 
PARAMETRIC_REPRESENTATION_CONTEXT() REPRESENTATION_CONTEXT('2D SPACE',''
  ) );
#99 = PCURVE('',#100,#105);
#100 = PLANE('',#101);
#101 = AXIS2_PLACEMENT_3D('',#102,#103,#104);
#102 = CARTESIAN_POINT('',(-14.,-8.,0.));
#103 = DIRECTION('',(0.,0.,1.));
#104 = DIRECTION('',(1.,0.,0.));
#105 = DEFINITIONAL_REPRESENTATION('',(#106),#110);
#106 = LINE('',#107,#108);
#107 = CARTESIAN_POINT('',(0.,0.));
#108 = VECTOR('',#109,1.);
#109 = DIRECTION('',(0.,1.));
#110 = ( GEOMETRIC_REPRESENTATION_CONTEXT(2) 
PARAMETRIC_REPRESENTATION_CONTEXT() REPRESENTATION_CONTEXT('2D SPACE',''
  ) );
#111 = ORIENTED_EDGE('',*,*,#112,.T.);
#112 = EDGE_CURVE('',#85,#24,#113,.T.);
#113 = SURFACE_CURVE('',#114,(#118,#125),.PCURVE_S1.);
#114 = LINE('',#115,#116);
#115 = CARTESIAN_POINT('',(-14.,6.,0.));
#116 = VECTOR('',#117,1.);
#117 = DIRECTION('',(0.,0.,1.));
#118 = PCURVE('',#32,#119);
#119 = DEFINITIONAL_REPRESENTATION('',(#120),#124);
#120 = LINE('',#121,#122);
#121 = CARTESIAN_POINT('',(0.,-14.));
#122 = VECTOR('',#123,1.);
#123 = DIRECTION('',(1.,0.));
#124 = ( GEOMETRIC_REPRESENTATION_CONTEXT(2) 
PARAMETRIC_REPRESENTATION_CONTEXT() REPRESENTATION_CONTEXT('2D SPACE',''
  ) );
#125 = PCURVE('',#126,#131);
#126 = CYLINDRICAL_SURFACE('',#127,2.);
#127 = AXIS2_PLACEMENT_3D('',#128,#129,#130);
#128 = CARTESIAN_POINT('',(-12.,6.,0.));
#129 = DIRECTION('',(0.,0.,1.));
#130 = DIRECTION('',(-1.,-0.,0.));
#131 = DEFINITIONAL_REPRESENTATION('',(#132),#136);
#132 = LINE('',#133,#134);
#133 = CARTESIAN_POINT('',(-0.,0.));
#134 = VECTOR('',#135,1.);
#135 = DIRECTION('',(-0.,1.));
#136 = ( GEOMETRIC_REPRESENTATION_CONTEXT(2) 
PARAMETRIC_REPRESENTATION_CONTEXT() REPRESENTATION_CONTEXT('2D SPACE',''
  ) );
#137 = FACE_BOUND('',#138,.F.);
#138 = EDGE_LOOP('',(#139));
#139 = ORIENTED_EDGE('',*,*,#140,.F.);
#140 = EDGE_CURVE('',#141,#141,#143,.T.);
#141 = VERTEX_POINT('',#142);
#142 = CARTESIAN_POINT('',(-14.,1.7,7.));
#143 = SURFACE_CURVE('',#144,(#149,#156),.PCURVE_S1.);
#144 = CIRCLE('',#145,1.7);
#145 = AXIS2_PLACEMENT_3D('',#146,#147,#148);
#146 = CARTESIAN_POINT('',(-14.,0.,7.));
#147 = DIRECTION('',(1.,0.,0.));
#148 = DIRECTION('',(-0.,1.,0.));
#149 = PCURVE('',#32,#150);
#150 = DEFINITIONAL_REPRESENTATION('',(#151),#155);
#151 = CIRCLE('',#152,1.7);
#152 = AXIS2_PLACEMENT_2D('',#153,#154);
#153 = CARTESIAN_POINT('',(7.,-8.));
#154 = DIRECTION('',(0.,-1.));
#155 = ( GEOMETRIC_REPRESENTATION_CONTEXT(2) 
PARAMETRIC_REPRESENTATION_CONTEXT() REPRESENTATION_CONTEXT('2D SPACE',''
  ) );
#156 = PCURVE('',#157,#162);
#157 = CYLINDRICAL_SURFACE('',#158,1.7);
#158 = AXIS2_PLACEMENT_3D('',#159,#160,#161);
#159 = CARTESIAN_POINT('',(0.,0.,7.));
#160 = DIRECTION('',(1.,0.,0.));
#161 = DIRECTION('',(0.,1.,0.));
#162 = DEFINITIONAL_REPRESENTATION('',(#163),#167);
#163 = LINE('',#164,#165);
#164 = CARTESIAN_POINT('',(0.,-14.));
#165 = VECTOR('',#166,1.);
#166 = DIRECTION('',(1.,0.));
#167 = ( GEOMETRIC_REPRESENTATION_CONTEXT(2) 
PARAMETRIC_REPRESENTATION_CONTEXT() REPRESENTATION_CONTEXT('2D SPACE',''
  ) );
#168 = ADVANCED_FACE('',(#169,#368),#44,.T.);
#169 = FACE_BOUND('',#170,.T.);
#170 = EDGE_LOOP('',(#171,#172,#196,#224,#257,#285,#314,#342));
#171 = ORIENTED_EDGE('',*,*,#21,.F.);
#172 = ORIENTED_EDGE('',*,*,#173,.T.);
#173 = EDGE_CURVE('',#22,#174,#176,.T.);
#174 = VERTEX_POINT('',#175);
#175 = CARTESIAN_POINT('',(-12.,-8.,14.));
#176 = SURFACE_CURVE('',#177,(#182,#189),.PCURVE_S1.);
#177 = CIRCLE('',#178,2.);
#178 = AXIS2_PLACEMENT_3D('',#179,#180,#181);
#179 = CARTESIAN_POINT('',(-12.,-6.,14.));
#180 = DIRECTION('',(0.,0.,1.));
#181 = DIRECTION('',(0.,-1.,0.));
#182 = PCURVE('',#44,#183);
#183 = DEFINITIONAL_REPRESENTATION('',(#184),#188);
#184 = CIRCLE('',#185,2.);
#185 = AXIS2_PLACEMENT_2D('',#186,#187);
#186 = CARTESIAN_POINT('',(2.,2.));
#187 = DIRECTION('',(0.,-1.));
#188 = ( GEOMETRIC_REPRESENTATION_CONTEXT(2) 
PARAMETRIC_REPRESENTATION_CONTEXT() REPRESENTATION_CONTEXT('2D SPACE',''
  ) );
#189 = PCURVE('',#72,#190);
#190 = DEFINITIONAL_REPRESENTATION('',(#191),#195);
#191 = LINE('',#192,#193);
#192 = CARTESIAN_POINT('',(-4.712388980385,14.));
#193 = VECTOR('',#194,1.);
#194 = DIRECTION('',(1.,0.));
#195 = ( GEOMETRIC_REPRESENTATION_CONTEXT(2) 
PARAMETRIC_REPRESENTATION_CONTEXT() REPRESENTATION_CONTEXT('2D SPACE',''
  ) );
#196 = ORIENTED_EDGE('',*,*,#197,.T.);
#197 = EDGE_CURVE('',#174,#198,#200,.T.);
#198 = VERTEX_POINT('',#199);
#199 = CARTESIAN_POINT('',(12.,-8.,14.));
#200 = SURFACE_CURVE('',#201,(#205,#212),.PCURVE_S1.);
#201 = LINE('',#202,#203);
#202 = CARTESIAN_POINT('',(-14.,-8.,14.));
#203 = VECTOR('',#204,1.);
#204 = DIRECTION('',(1.,0.,0.));
#205 = PCURVE('',#44,#206);
#206 = DEFINITIONAL_REPRESENTATION('',(#207),#211);
#207 = LINE('',#208,#209);
#208 = CARTESIAN_POINT('',(0.,0.));
#209 = VECTOR('',#210,1.);
#210 = DIRECTION('',(1.,0.));
#211 = ( GEOMETRIC_REPRESENTATION_CONTEXT(2) 
PARAMETRIC_REPRESENTATION_CONTEXT() REPRESENTATION_CONTEXT('2D SPACE',''
  ) );
#212 = PCURVE('',#213,#218);
#213 = PLANE('',#214);
#214 = AXIS2_PLACEMENT_3D('',#215,#216,#217);
#215 = CARTESIAN_POINT('',(-14.,-8.,0.));
#216 = DIRECTION('',(0.,1.,0.));
#217 = DIRECTION('',(0.,0.,1.));
#218 = DEFINITIONAL_REPRESENTATION('',(#219),#223);
#219 = LINE('',#220,#221);
#220 = CARTESIAN_POINT('',(14.,0.));
#221 = VECTOR('',#222,1.);
#222 = DIRECTION('',(0.,1.));
#223 = ( GEOMETRIC_REPRESENTATION_CONTEXT(2) 
PARAMETRIC_REPRESENTATION_CONTEXT() REPRESENTATION_CONTEXT('2D SPACE',''
  ) );
#224 = ORIENTED_EDGE('',*,*,#225,.F.);
#225 = EDGE_CURVE('',#226,#198,#228,.T.);
#226 = VERTEX_POINT('',#227);
#227 = CARTESIAN_POINT('',(14.,-6.,14.));
#228 = SURFACE_CURVE('',#229,(#234,#245),.PCURVE_S1.);
#229 = CIRCLE('',#230,2.);
#230 = AXIS2_PLACEMENT_3D('',#231,#232,#233);
#231 = CARTESIAN_POINT('',(12.,-6.,14.));
#232 = DIRECTION('',(-0.,-0.,-1.));
#233 = DIRECTION('',(0.,-1.,0.));
#234 = PCURVE('',#44,#235);
#235 = DEFINITIONAL_REPRESENTATION('',(#236),#244);
#236 = ( BOUNDED_CURVE() B_SPLINE_CURVE(2,(#237,#238,#239,#240,#241,#242
,#243),.UNSPECIFIED.,.T.,.F.) B_SPLINE_CURVE_WITH_KNOTS((1,2,2,2,2,1),(
    -2.094395102393,0.,2.094395102393,4.188790204786,6.28318530718,
8.377580409573),.UNSPECIFIED.) CURVE() GEOMETRIC_REPRESENTATION_ITEM() 
RATIONAL_B_SPLINE_CURVE((1.,0.5,1.,0.5,1.,0.5,1.)) REPRESENTATION_ITEM(
  '') );
#237 = CARTESIAN_POINT('',(26.,0.));
#238 = CARTESIAN_POINT('',(22.535898384862,0.));
#239 = CARTESIAN_POINT('',(24.267949192431,3.));
#240 = CARTESIAN_POINT('',(26.,6.));
#241 = CARTESIAN_POINT('',(27.732050807569,3.));
#242 = CARTESIAN_POINT('',(29.464101615138,3.10862446895E-15));
#243 = CARTESIAN_POINT('',(26.,0.));
#244 = ( GEOMETRIC_REPRESENTATION_CONTEXT(2) 
PARAMETRIC_REPRESENTATION_CONTEXT() REPRESENTATION_CONTEXT('2D SPACE',''
  ) );
#245 = PCURVE('',#246,#251);
#246 = CYLINDRICAL_SURFACE('',#247,2.);
#247 = AXIS2_PLACEMENT_3D('',#248,#249,#250);
#248 = CARTESIAN_POINT('',(12.,-6.,0.));
#249 = DIRECTION('',(0.,0.,1.));
#250 = DIRECTION('',(1.,0.,-0.));
#251 = DEFINITIONAL_REPRESENTATION('',(#252),#256);
#252 = LINE('',#253,#254);
#253 = CARTESIAN_POINT('',(4.712388980385,14.));
#254 = VECTOR('',#255,1.);
#255 = DIRECTION('',(-1.,0.));
#256 = ( GEOMETRIC_REPRESENTATION_CONTEXT(2) 
PARAMETRIC_REPRESENTATION_CONTEXT() REPRESENTATION_CONTEXT('2D SPACE',''
  ) );
#257 = ORIENTED_EDGE('',*,*,#258,.T.);
#258 = EDGE_CURVE('',#226,#259,#261,.T.);
#259 = VERTEX_POINT('',#260);
#260 = CARTESIAN_POINT('',(14.,6.,14.));
#261 = SURFACE_CURVE('',#262,(#266,#273),.PCURVE_S1.);
#262 = LINE('',#263,#264);
#263 = CARTESIAN_POINT('',(14.,-8.,14.));
#264 = VECTOR('',#265,1.);
#265 = DIRECTION('',(0.,1.,0.));
#266 = PCURVE('',#44,#267);
#267 = DEFINITIONAL_REPRESENTATION('',(#268),#272);
#268 = LINE('',#269,#270);
#269 = CARTESIAN_POINT('',(28.,0.));
#270 = VECTOR('',#271,1.);
#271 = DIRECTION('',(0.,1.));
#272 = ( GEOMETRIC_REPRESENTATION_CONTEXT(2) 
PARAMETRIC_REPRESENTATION_CONTEXT() REPRESENTATION_CONTEXT('2D SPACE',''
  ) );
#273 = PCURVE('',#274,#279);
#274 = PLANE('',#275);
#275 = AXIS2_PLACEMENT_3D('',#276,#277,#278);
#276 = CARTESIAN_POINT('',(14.,-8.,0.));
#277 = DIRECTION('',(1.,0.,0.));
#278 = DIRECTION('',(0.,0.,1.));
#279 = DEFINITIONAL_REPRESENTATION('',(#280),#284);
#280 = LINE('',#281,#282);
#281 = CARTESIAN_POINT('',(14.,0.));
#282 = VECTOR('',#283,1.);
#283 = DIRECTION('',(0.,-1.));
#284 = ( GEOMETRIC_REPRESENTATION_CONTEXT(2) 
PARAMETRIC_REPRESENTATION_CONTEXT() REPRESENTATION_CONTEXT('2D SPACE',''
  ) );
#285 = ORIENTED_EDGE('',*,*,#286,.T.);
#286 = EDGE_CURVE('',#259,#287,#289,.T.);
#287 = VERTEX_POINT('',#288);
#288 = CARTESIAN_POINT('',(12.,8.,14.));
#289 = SURFACE_CURVE('',#290,(#295,#302),.PCURVE_S1.);
#290 = CIRCLE('',#291,2.);
#291 = AXIS2_PLACEMENT_3D('',#292,#293,#294);
#292 = CARTESIAN_POINT('',(12.,6.,14.));
#293 = DIRECTION('',(0.,0.,1.));
#294 = DIRECTION('',(0.,-1.,0.));
#295 = PCURVE('',#44,#296);
#296 = DEFINITIONAL_REPRESENTATION('',(#297),#301);
#297 = CIRCLE('',#298,2.);
#298 = AXIS2_PLACEMENT_2D('',#299,#300);
#299 = CARTESIAN_POINT('',(26.,14.));
#300 = DIRECTION('',(0.,-1.));
#301 = ( GEOMETRIC_REPRESENTATION_CONTEXT(2) 
PARAMETRIC_REPRESENTATION_CONTEXT() REPRESENTATION_CONTEXT('2D SPACE',''
  ) );
#302 = PCURVE('',#303,#308);
#303 = CYLINDRICAL_SURFACE('',#304,2.);
#304 = AXIS2_PLACEMENT_3D('',#305,#306,#307);
#305 = CARTESIAN_POINT('',(12.,6.,0.));
#306 = DIRECTION('',(0.,0.,1.));
#307 = DIRECTION('',(1.,0.,-0.));
#308 = DEFINITIONAL_REPRESENTATION('',(#309),#313);
#309 = LINE('',#310,#311);
#310 = CARTESIAN_POINT('',(-1.570796326795,14.));
#311 = VECTOR('',#312,1.);
#312 = DIRECTION('',(1.,0.));
#313 = ( GEOMETRIC_REPRESENTATION_CONTEXT(2) 
PARAMETRIC_REPRESENTATION_CONTEXT() REPRESENTATION_CONTEXT('2D SPACE',''
  ) );
#314 = ORIENTED_EDGE('',*,*,#315,.F.);
#315 = EDGE_CURVE('',#316,#287,#318,.T.);
#316 = VERTEX_POINT('',#317);
#317 = CARTESIAN_POINT('',(-12.,8.,14.));
#318 = SURFACE_CURVE('',#319,(#323,#330),.PCURVE_S1.);
#319 = LINE('',#320,#321);
#320 = CARTESIAN_POINT('',(-14.,8.,14.));
#321 = VECTOR('',#322,1.);
#322 = DIRECTION('',(1.,0.,0.));
#323 = PCURVE('',#44,#324);
#324 = DEFINITIONAL_REPRESENTATION('',(#325),#329);
#325 = LINE('',#326,#327);
#326 = CARTESIAN_POINT('',(0.,16.));
#327 = VECTOR('',#328,1.);
#328 = DIRECTION('',(1.,0.));
#329 = ( GEOMETRIC_REPRESENTATION_CONTEXT(2) 
PARAMETRIC_REPRESENTATION_CONTEXT() REPRESENTATION_CONTEXT('2D SPACE',''
  ) );
#330 = PCURVE('',#331,#336);
#331 = PLANE('',#332);
#332 = AXIS2_PLACEMENT_3D('',#333,#334,#335);
#333 = CARTESIAN_POINT('',(-14.,8.,0.));
#334 = DIRECTION('',(0.,1.,0.));
#335 = DIRECTION('',(0.,0.,1.));
#336 = DEFINITIONAL_REPRESENTATION('',(#337),#341);
#337 = LINE('',#338,#339);
#338 = CARTESIAN_POINT('',(14.,0.));
#339 = VECTOR('',#340,1.);
#340 = DIRECTION('',(0.,1.));
#341 = ( GEOMETRIC_REPRESENTATION_CONTEXT(2) 
PARAMETRIC_REPRESENTATION_CONTEXT() REPRESENTATION_CONTEXT('2D SPACE',''
  ) );
#342 = ORIENTED_EDGE('',*,*,#343,.F.);
#343 = EDGE_CURVE('',#24,#316,#344,.T.);
#344 = SURFACE_CURVE('',#345,(#350,#361),.PCURVE_S1.);
#345 = CIRCLE('',#346,2.);
#346 = AXIS2_PLACEMENT_3D('',#347,#348,#349);
#347 = CARTESIAN_POINT('',(-12.,6.,14.));
#348 = DIRECTION('',(-0.,-0.,-1.));
#349 = DIRECTION('',(0.,-1.,0.));
#350 = PCURVE('',#44,#351);
#351 = DEFINITIONAL_REPRESENTATION('',(#352),#360);
#352 = ( BOUNDED_CURVE() B_SPLINE_CURVE(2,(#353,#354,#355,#356,#357,#358
,#359),.UNSPECIFIED.,.T.,.F.) B_SPLINE_CURVE_WITH_KNOTS((1,2,2,2,2,1),(
    -2.094395102393,0.,2.094395102393,4.188790204786,6.28318530718,
8.377580409573),.UNSPECIFIED.) CURVE() GEOMETRIC_REPRESENTATION_ITEM() 
RATIONAL_B_SPLINE_CURVE((1.,0.5,1.,0.5,1.,0.5,1.)) REPRESENTATION_ITEM(
  '') );
#353 = CARTESIAN_POINT('',(2.,12.));
#354 = CARTESIAN_POINT('',(-1.464101615138,12.));
#355 = CARTESIAN_POINT('',(0.267949192431,15.));
#356 = CARTESIAN_POINT('',(2.,18.));
#357 = CARTESIAN_POINT('',(3.732050807569,15.));
#358 = CARTESIAN_POINT('',(5.464101615138,12.));
#359 = CARTESIAN_POINT('',(2.,12.));
#360 = ( GEOMETRIC_REPRESENTATION_CONTEXT(2) 
PARAMETRIC_REPRESENTATION_CONTEXT() REPRESENTATION_CONTEXT('2D SPACE',''
  ) );
#361 = PCURVE('',#126,#362);
#362 = DEFINITIONAL_REPRESENTATION('',(#363),#367);
#363 = LINE('',#364,#365);
#364 = CARTESIAN_POINT('',(1.570796326795,14.));
#365 = VECTOR('',#366,1.);
#366 = DIRECTION('',(-1.,0.));
#367 = ( GEOMETRIC_REPRESENTATION_CONTEXT(2) 
PARAMETRIC_REPRESENTATION_CONTEXT() REPRESENTATION_CONTEXT('2D SPACE',''
  ) );
#368 = FACE_BOUND('',#369,.T.);
#369 = EDGE_LOOP('',(#370));
#370 = ORIENTED_EDGE('',*,*,#371,.T.);
#371 = EDGE_CURVE('',#372,#372,#374,.T.);
#372 = VERTEX_POINT('',#373);
#373 = CARTESIAN_POINT('',(-2.6,-6.368163355566E-16,14.));
#374 = SURFACE_CURVE('',#375,(#380,#391),.PCURVE_S1.);
#375 = CIRCLE('',#376,2.6);
#376 = AXIS2_PLACEMENT_3D('',#377,#378,#379);
#377 = CARTESIAN_POINT('',(0.,0.,14.));
#378 = DIRECTION('',(0.,0.,-1.));
#379 = DIRECTION('',(-1.,0.,0.));
#380 = PCURVE('',#44,#381);
#381 = DEFINITIONAL_REPRESENTATION('',(#382),#390);
#382 = ( BOUNDED_CURVE() B_SPLINE_CURVE(2,(#383,#384,#385,#386,#387,#388
,#389),.UNSPECIFIED.,.T.,.F.) B_SPLINE_CURVE_WITH_KNOTS((1,2,2,2,2,1),(
    -2.094395102393,0.,2.094395102393,4.188790204786,6.28318530718,
8.377580409573),.UNSPECIFIED.) CURVE() GEOMETRIC_REPRESENTATION_ITEM() 
RATIONAL_B_SPLINE_CURVE((1.,0.5,1.,0.5,1.,0.5,1.)) REPRESENTATION_ITEM(
  '') );
#383 = CARTESIAN_POINT('',(11.4,8.));
#384 = CARTESIAN_POINT('',(11.4,12.503332099679));
#385 = CARTESIAN_POINT('',(15.3,10.25166604984));
#386 = CARTESIAN_POINT('',(19.2,8.));
#387 = CARTESIAN_POINT('',(15.3,5.74833395016));
#388 = CARTESIAN_POINT('',(11.4,3.496667900321));
#389 = CARTESIAN_POINT('',(11.4,8.));
#390 = ( GEOMETRIC_REPRESENTATION_CONTEXT(2) 
PARAMETRIC_REPRESENTATION_CONTEXT() REPRESENTATION_CONTEXT('2D SPACE',''
  ) );
#391 = PCURVE('',#392,#397);
#392 = CYLINDRICAL_SURFACE('',#393,2.6);
#393 = AXIS2_PLACEMENT_3D('',#394,#395,#396);
#394 = CARTESIAN_POINT('',(0.,0.,14.));
#395 = DIRECTION('',(0.,0.,-1.));
#396 = DIRECTION('',(-1.,0.,0.));
#397 = DEFINITIONAL_REPRESENTATION('',(#398),#402);
#398 = LINE('',#399,#400);
#399 = CARTESIAN_POINT('',(0.,0.));
#400 = VECTOR('',#401,1.);
#401 = DIRECTION('',(1.,0.));
#402 = ( GEOMETRIC_REPRESENTATION_CONTEXT(2) 
PARAMETRIC_REPRESENTATION_CONTEXT() REPRESENTATION_CONTEXT('2D SPACE',''
  ) );
#403 = ADVANCED_FACE('',(#404),#72,.T.);
#404 = FACE_BOUND('',#405,.T.);
#405 = EDGE_LOOP('',(#406,#430,#451,#452));
#406 = ORIENTED_EDGE('',*,*,#407,.T.);
#407 = EDGE_CURVE('',#57,#408,#410,.T.);
#408 = VERTEX_POINT('',#409);
#409 = CARTESIAN_POINT('',(-12.,-8.,0.));
#410 = SURFACE_CURVE('',#411,(#416,#423),.PCURVE_S1.);
#411 = CIRCLE('',#412,2.);
#412 = AXIS2_PLACEMENT_3D('',#413,#414,#415);
#413 = CARTESIAN_POINT('',(-12.,-6.,0.));
#414 = DIRECTION('',(0.,0.,1.));
#415 = DIRECTION('',(0.,-1.,0.));
#416 = PCURVE('',#72,#417);
#417 = DEFINITIONAL_REPRESENTATION('',(#418),#422);
#418 = LINE('',#419,#420);
#419 = CARTESIAN_POINT('',(-4.712388980385,0.));
#420 = VECTOR('',#421,1.);
#421 = DIRECTION('',(1.,0.));
#422 = ( GEOMETRIC_REPRESENTATION_CONTEXT(2) 
PARAMETRIC_REPRESENTATION_CONTEXT() REPRESENTATION_CONTEXT('2D SPACE',''
  ) );
#423 = PCURVE('',#100,#424);
#424 = DEFINITIONAL_REPRESENTATION('',(#425),#429);
#425 = CIRCLE('',#426,2.);
#426 = AXIS2_PLACEMENT_2D('',#427,#428);
#427 = CARTESIAN_POINT('',(2.,2.));
#428 = DIRECTION('',(0.,-1.));
#429 = ( GEOMETRIC_REPRESENTATION_CONTEXT(2) 
PARAMETRIC_REPRESENTATION_CONTEXT() REPRESENTATION_CONTEXT('2D SPACE',''
  ) );
#430 = ORIENTED_EDGE('',*,*,#431,.T.);
#431 = EDGE_CURVE('',#408,#174,#432,.T.);
#432 = SURFACE_CURVE('',#433,(#437,#444),.PCURVE_S1.);
#433 = LINE('',#434,#435);
#434 = CARTESIAN_POINT('',(-12.,-8.,0.));
#435 = VECTOR('',#436,1.);
#436 = DIRECTION('',(0.,0.,1.));
#437 = PCURVE('',#72,#438);
#438 = DEFINITIONAL_REPRESENTATION('',(#439),#443);
#439 = LINE('',#440,#441);
#440 = CARTESIAN_POINT('',(1.570796326795,0.));
#441 = VECTOR('',#442,1.);
#442 = DIRECTION('',(0.,1.));
#443 = ( GEOMETRIC_REPRESENTATION_CONTEXT(2) 
PARAMETRIC_REPRESENTATION_CONTEXT() REPRESENTATION_CONTEXT('2D SPACE',''
  ) );
#444 = PCURVE('',#213,#445);
#445 = DEFINITIONAL_REPRESENTATION('',(#446),#450);
#446 = LINE('',#447,#448);
#447 = CARTESIAN_POINT('',(0.,2.));
#448 = VECTOR('',#449,1.);
#449 = DIRECTION('',(1.,0.));
#450 = ( GEOMETRIC_REPRESENTATION_CONTEXT(2) 
PARAMETRIC_REPRESENTATION_CONTEXT() REPRESENTATION_CONTEXT('2D SPACE',''
  ) );
#451 = ORIENTED_EDGE('',*,*,#173,.F.);
#452 = ORIENTED_EDGE('',*,*,#56,.F.);
#453 = ADVANCED_FACE('',(#454),#126,.T.);
#454 = FACE_BOUND('',#455,.F.);
#455 = EDGE_LOOP('',(#456,#484,#505,#506));
#456 = ORIENTED_EDGE('',*,*,#457,.T.);
#457 = EDGE_CURVE('',#85,#458,#460,.T.);
#458 = VERTEX_POINT('',#459);
#459 = CARTESIAN_POINT('',(-12.,8.,0.));
#460 = SURFACE_CURVE('',#461,(#466,#473),.PCURVE_S1.);
#461 = CIRCLE('',#462,2.);
#462 = AXIS2_PLACEMENT_3D('',#463,#464,#465);
#463 = CARTESIAN_POINT('',(-12.,6.,0.));
#464 = DIRECTION('',(-0.,-0.,-1.));
#465 = DIRECTION('',(0.,-1.,0.));
#466 = PCURVE('',#126,#467);
#467 = DEFINITIONAL_REPRESENTATION('',(#468),#472);
#468 = LINE('',#469,#470);
#469 = CARTESIAN_POINT('',(1.570796326795,-0.));
#470 = VECTOR('',#471,1.);
#471 = DIRECTION('',(-1.,0.));
#472 = ( GEOMETRIC_REPRESENTATION_CONTEXT(2) 
PARAMETRIC_REPRESENTATION_CONTEXT() REPRESENTATION_CONTEXT('2D SPACE',''
  ) );
#473 = PCURVE('',#100,#474);
#474 = DEFINITIONAL_REPRESENTATION('',(#475),#483);
#475 = ( BOUNDED_CURVE() B_SPLINE_CURVE(2,(#476,#477,#478,#479,#480,#481
,#482),.UNSPECIFIED.,.T.,.F.) B_SPLINE_CURVE_WITH_KNOTS((1,2,2,2,2,1),(
    -2.094395102393,0.,2.094395102393,4.188790204786,6.28318530718,
8.377580409573),.UNSPECIFIED.) CURVE() GEOMETRIC_REPRESENTATION_ITEM() 
RATIONAL_B_SPLINE_CURVE((1.,0.5,1.,0.5,1.,0.5,1.)) REPRESENTATION_ITEM(
  '') );
#476 = CARTESIAN_POINT('',(2.,12.));
#477 = CARTESIAN_POINT('',(-1.464101615138,12.));
#478 = CARTESIAN_POINT('',(0.267949192431,15.));
#479 = CARTESIAN_POINT('',(2.,18.));
#480 = CARTESIAN_POINT('',(3.732050807569,15.));
#481 = CARTESIAN_POINT('',(5.464101615138,12.));
#482 = CARTESIAN_POINT('',(2.,12.));
#483 = ( GEOMETRIC_REPRESENTATION_CONTEXT(2) 
PARAMETRIC_REPRESENTATION_CONTEXT() REPRESENTATION_CONTEXT('2D SPACE',''
  ) );
#484 = ORIENTED_EDGE('',*,*,#485,.T.);
#485 = EDGE_CURVE('',#458,#316,#486,.T.);
#486 = SURFACE_CURVE('',#487,(#491,#498),.PCURVE_S1.);
#487 = LINE('',#488,#489);
#488 = CARTESIAN_POINT('',(-12.,8.,0.));
#489 = VECTOR('',#490,1.);
#490 = DIRECTION('',(0.,0.,1.));
#491 = PCURVE('',#126,#492);
#492 = DEFINITIONAL_REPRESENTATION('',(#493),#497);
#493 = LINE('',#494,#495);
#494 = CARTESIAN_POINT('',(-1.570796326795,0.));
#495 = VECTOR('',#496,1.);
#496 = DIRECTION('',(-0.,1.));
#497 = ( GEOMETRIC_REPRESENTATION_CONTEXT(2) 
PARAMETRIC_REPRESENTATION_CONTEXT() REPRESENTATION_CONTEXT('2D SPACE',''
  ) );
#498 = PCURVE('',#331,#499);
#499 = DEFINITIONAL_REPRESENTATION('',(#500),#504);
#500 = LINE('',#501,#502);
#501 = CARTESIAN_POINT('',(0.,2.));
#502 = VECTOR('',#503,1.);
#503 = DIRECTION('',(1.,0.));
#504 = ( GEOMETRIC_REPRESENTATION_CONTEXT(2) 
PARAMETRIC_REPRESENTATION_CONTEXT() REPRESENTATION_CONTEXT('2D SPACE',''
  ) );
#505 = ORIENTED_EDGE('',*,*,#343,.F.);
#506 = ORIENTED_EDGE('',*,*,#112,.F.);
#507 = ADVANCED_FACE('',(#508,#632),#100,.F.);
#508 = FACE_BOUND('',#509,.F.);
#509 = EDGE_LOOP('',(#510,#511,#512,#535,#563,#586,#610,#631));
#510 = ORIENTED_EDGE('',*,*,#84,.F.);
#511 = ORIENTED_EDGE('',*,*,#407,.T.);
#512 = ORIENTED_EDGE('',*,*,#513,.T.);
#513 = EDGE_CURVE('',#408,#514,#516,.T.);
#514 = VERTEX_POINT('',#515);
#515 = CARTESIAN_POINT('',(12.,-8.,0.));
#516 = SURFACE_CURVE('',#517,(#521,#528),.PCURVE_S1.);
#517 = LINE('',#518,#519);
#518 = CARTESIAN_POINT('',(-14.,-8.,0.));
#519 = VECTOR('',#520,1.);
#520 = DIRECTION('',(1.,0.,0.));
#521 = PCURVE('',#100,#522);
#522 = DEFINITIONAL_REPRESENTATION('',(#523),#527);
#523 = LINE('',#524,#525);
#524 = CARTESIAN_POINT('',(0.,0.));
#525 = VECTOR('',#526,1.);
#526 = DIRECTION('',(1.,0.));
#527 = ( GEOMETRIC_REPRESENTATION_CONTEXT(2) 
PARAMETRIC_REPRESENTATION_CONTEXT() REPRESENTATION_CONTEXT('2D SPACE',''
  ) );
#528 = PCURVE('',#213,#529);
#529 = DEFINITIONAL_REPRESENTATION('',(#530),#534);
#530 = LINE('',#531,#532);
#531 = CARTESIAN_POINT('',(0.,0.));
#532 = VECTOR('',#533,1.);
#533 = DIRECTION('',(0.,1.));
#534 = ( GEOMETRIC_REPRESENTATION_CONTEXT(2) 
PARAMETRIC_REPRESENTATION_CONTEXT() REPRESENTATION_CONTEXT('2D SPACE',''
  ) );
#535 = ORIENTED_EDGE('',*,*,#536,.F.);
#536 = EDGE_CURVE('',#537,#514,#539,.T.);
#537 = VERTEX_POINT('',#538);
#538 = CARTESIAN_POINT('',(14.,-6.,0.));
#539 = SURFACE_CURVE('',#540,(#545,#556),.PCURVE_S1.);
#540 = CIRCLE('',#541,2.);
#541 = AXIS2_PLACEMENT_3D('',#542,#543,#544);
#542 = CARTESIAN_POINT('',(12.,-6.,0.));
#543 = DIRECTION('',(-0.,-0.,-1.));
#544 = DIRECTION('',(0.,-1.,0.));
#545 = PCURVE('',#100,#546);
#546 = DEFINITIONAL_REPRESENTATION('',(#547),#555);
#547 = ( BOUNDED_CURVE() B_SPLINE_CURVE(2,(#548,#549,#550,#551,#552,#553
,#554),.UNSPECIFIED.,.T.,.F.) B_SPLINE_CURVE_WITH_KNOTS((1,2,2,2,2,1),(
    -2.094395102393,0.,2.094395102393,4.188790204786,6.28318530718,
8.377580409573),.UNSPECIFIED.) CURVE() GEOMETRIC_REPRESENTATION_ITEM() 
RATIONAL_B_SPLINE_CURVE((1.,0.5,1.,0.5,1.,0.5,1.)) REPRESENTATION_ITEM(
  '') );
#548 = CARTESIAN_POINT('',(26.,0.));
#549 = CARTESIAN_POINT('',(22.535898384862,0.));
#550 = CARTESIAN_POINT('',(24.267949192431,3.));
#551 = CARTESIAN_POINT('',(26.,6.));
#552 = CARTESIAN_POINT('',(27.732050807569,3.));
#553 = CARTESIAN_POINT('',(29.464101615138,3.10862446895E-15));
#554 = CARTESIAN_POINT('',(26.,0.));
#555 = ( GEOMETRIC_REPRESENTATION_CONTEXT(2) 
PARAMETRIC_REPRESENTATION_CONTEXT() REPRESENTATION_CONTEXT('2D SPACE',''
  ) );
#556 = PCURVE('',#246,#557);
#557 = DEFINITIONAL_REPRESENTATION('',(#558),#562);
#558 = LINE('',#559,#560);
#559 = CARTESIAN_POINT('',(4.712388980385,-0.));
#560 = VECTOR('',#561,1.);
#561 = DIRECTION('',(-1.,0.));
#562 = ( GEOMETRIC_REPRESENTATION_CONTEXT(2) 
PARAMETRIC_REPRESENTATION_CONTEXT() REPRESENTATION_CONTEXT('2D SPACE',''
  ) );
#563 = ORIENTED_EDGE('',*,*,#564,.T.);
#564 = EDGE_CURVE('',#537,#565,#567,.T.);
#565 = VERTEX_POINT('',#566);
#566 = CARTESIAN_POINT('',(14.,6.,0.));
#567 = SURFACE_CURVE('',#568,(#572,#579),.PCURVE_S1.);
#568 = LINE('',#569,#570);
#569 = CARTESIAN_POINT('',(14.,-8.,0.));
#570 = VECTOR('',#571,1.);
#571 = DIRECTION('',(0.,1.,0.));
#572 = PCURVE('',#100,#573);
#573 = DEFINITIONAL_REPRESENTATION('',(#574),#578);
#574 = LINE('',#575,#576);
#575 = CARTESIAN_POINT('',(28.,0.));
#576 = VECTOR('',#577,1.);
#577 = DIRECTION('',(0.,1.));
#578 = ( GEOMETRIC_REPRESENTATION_CONTEXT(2) 
PARAMETRIC_REPRESENTATION_CONTEXT() REPRESENTATION_CONTEXT('2D SPACE',''
  ) );
#579 = PCURVE('',#274,#580);
#580 = DEFINITIONAL_REPRESENTATION('',(#581),#585);
#581 = LINE('',#582,#583);
#582 = CARTESIAN_POINT('',(0.,0.));
#583 = VECTOR('',#584,1.);
#584 = DIRECTION('',(0.,-1.));
#585 = ( GEOMETRIC_REPRESENTATION_CONTEXT(2) 
PARAMETRIC_REPRESENTATION_CONTEXT() REPRESENTATION_CONTEXT('2D SPACE',''
  ) );
#586 = ORIENTED_EDGE('',*,*,#587,.T.);
#587 = EDGE_CURVE('',#565,#588,#590,.T.);
#588 = VERTEX_POINT('',#589);
#589 = CARTESIAN_POINT('',(12.,8.,0.));
#590 = SURFACE_CURVE('',#591,(#596,#603),.PCURVE_S1.);
#591 = CIRCLE('',#592,2.);
#592 = AXIS2_PLACEMENT_3D('',#593,#594,#595);
#593 = CARTESIAN_POINT('',(12.,6.,0.));
#594 = DIRECTION('',(0.,0.,1.));
#595 = DIRECTION('',(0.,-1.,0.));
#596 = PCURVE('',#100,#597);
#597 = DEFINITIONAL_REPRESENTATION('',(#598),#602);
#598 = CIRCLE('',#599,2.);
#599 = AXIS2_PLACEMENT_2D('',#600,#601);
#600 = CARTESIAN_POINT('',(26.,14.));
#601 = DIRECTION('',(0.,-1.));
#602 = ( GEOMETRIC_REPRESENTATION_CONTEXT(2) 
PARAMETRIC_REPRESENTATION_CONTEXT() REPRESENTATION_CONTEXT('2D SPACE',''
  ) );
#603 = PCURVE('',#303,#604);
#604 = DEFINITIONAL_REPRESENTATION('',(#605),#609);
#605 = LINE('',#606,#607);
#606 = CARTESIAN_POINT('',(-1.570796326795,0.));
#607 = VECTOR('',#608,1.);
#608 = DIRECTION('',(1.,0.));
#609 = ( GEOMETRIC_REPRESENTATION_CONTEXT(2) 
PARAMETRIC_REPRESENTATION_CONTEXT() REPRESENTATION_CONTEXT('2D SPACE',''
  ) );
#610 = ORIENTED_EDGE('',*,*,#611,.F.);
#611 = EDGE_CURVE('',#458,#588,#612,.T.);
#612 = SURFACE_CURVE('',#613,(#617,#624),.PCURVE_S1.);
#613 = LINE('',#614,#615);
#614 = CARTESIAN_POINT('',(-14.,8.,0.));
#615 = VECTOR('',#616,1.);
#616 = DIRECTION('',(1.,0.,0.));
#617 = PCURVE('',#100,#618);
#618 = DEFINITIONAL_REPRESENTATION('',(#619),#623);
#619 = LINE('',#620,#621);
#620 = CARTESIAN_POINT('',(0.,16.));
#621 = VECTOR('',#622,1.);
#622 = DIRECTION('',(1.,0.));
#623 = ( GEOMETRIC_REPRESENTATION_CONTEXT(2) 
PARAMETRIC_REPRESENTATION_CONTEXT() REPRESENTATION_CONTEXT('2D SPACE',''
  ) );
#624 = PCURVE('',#331,#625);
#625 = DEFINITIONAL_REPRESENTATION('',(#626),#630);
#626 = LINE('',#627,#628);
#627 = CARTESIAN_POINT('',(0.,0.));
#628 = VECTOR('',#629,1.);
#629 = DIRECTION('',(0.,1.));
#630 = ( GEOMETRIC_REPRESENTATION_CONTEXT(2) 
PARAMETRIC_REPRESENTATION_CONTEXT() REPRESENTATION_CONTEXT('2D SPACE',''
  ) );
#631 = ORIENTED_EDGE('',*,*,#457,.F.);
#632 = FACE_BOUND('',#633,.F.);
#633 = EDGE_LOOP('',(#634));
#634 = ORIENTED_EDGE('',*,*,#635,.T.);
#635 = EDGE_CURVE('',#636,#636,#638,.T.);
#636 = VERTEX_POINT('',#637);
#637 = CARTESIAN_POINT('',(-2.6,-6.368163355566E-16,0.));
#638 = SURFACE_CURVE('',#639,(#644,#655),.PCURVE_S1.);
#639 = CIRCLE('',#640,2.6);
#640 = AXIS2_PLACEMENT_3D('',#641,#642,#643);
#641 = CARTESIAN_POINT('',(0.,0.,0.));
#642 = DIRECTION('',(0.,0.,-1.));
#643 = DIRECTION('',(-1.,0.,0.));
#644 = PCURVE('',#100,#645);
#645 = DEFINITIONAL_REPRESENTATION('',(#646),#654);
#646 = ( BOUNDED_CURVE() B_SPLINE_CURVE(2,(#647,#648,#649,#650,#651,#652
,#653),.UNSPECIFIED.,.T.,.F.) B_SPLINE_CURVE_WITH_KNOTS((1,2,2,2,2,1),(
    -2.094395102393,0.,2.094395102393,4.188790204786,6.28318530718,
8.377580409573),.UNSPECIFIED.) CURVE() GEOMETRIC_REPRESENTATION_ITEM() 
RATIONAL_B_SPLINE_CURVE((1.,0.5,1.,0.5,1.,0.5,1.)) REPRESENTATION_ITEM(
  '') );
#647 = CARTESIAN_POINT('',(11.4,8.));
#648 = CARTESIAN_POINT('',(11.4,12.503332099679));
#649 = CARTESIAN_POINT('',(15.3,10.25166604984));
#650 = CARTESIAN_POINT('',(19.2,8.));
#651 = CARTESIAN_POINT('',(15.3,5.74833395016));
#652 = CARTESIAN_POINT('',(11.4,3.496667900321));
#653 = CARTESIAN_POINT('',(11.4,8.));
#654 = ( GEOMETRIC_REPRESENTATION_CONTEXT(2) 
PARAMETRIC_REPRESENTATION_CONTEXT() REPRESENTATION_CONTEXT('2D SPACE',''
  ) );
#655 = PCURVE('',#392,#656);
#656 = DEFINITIONAL_REPRESENTATION('',(#657),#661);
#657 = LINE('',#658,#659);
#658 = CARTESIAN_POINT('',(0.,14.));
#659 = VECTOR('',#660,1.);
#660 = DIRECTION('',(1.,0.));
#661 = ( GEOMETRIC_REPRESENTATION_CONTEXT(2) 
PARAMETRIC_REPRESENTATION_CONTEXT() REPRESENTATION_CONTEXT('2D SPACE',''
  ) );
#662 = ADVANCED_FACE('',(#663),#157,.F.);
#663 = FACE_BOUND('',#664,.F.);
#664 = EDGE_LOOP('',(#665,#762,#783,#784,#785,#880));
#665 = ORIENTED_EDGE('',*,*,#666,.F.);
#666 = EDGE_CURVE('',#667,#669,#671,.T.);
#667 = VERTEX_POINT('',#668);
#668 = CARTESIAN_POINT('',(-1.967231557291,1.7,7.));
#669 = VERTEX_POINT('',#670);
#670 = CARTESIAN_POINT('',(-2.6,-6.368163355566E-16,8.7));
#671 = SURFACE_CURVE('',#672,(#700,#731),.PCURVE_S1.);
#672 = B_SPLINE_CURVE_WITH_KNOTS('',6,(#673,#674,#675,#676,#677,#678,
    #679,#680,#681,#682,#683,#684,#685,#686,#687,#688,#689,#690,#691,
    #692,#693,#694,#695,#696,#697,#698,#699),.UNSPECIFIED.,.F.,.F.,(7,5,
    5,5,5,7),(0.,0.204213614023,0.42292428484,0.661963390562,
    0.760626044247,1.),.UNSPECIFIED.);
#673 = CARTESIAN_POINT('',(-1.967231557291,1.7,7.));
#674 = CARTESIAN_POINT('',(-1.967231557291,1.7,7.08516911656));
#675 = CARTESIAN_POINT('',(-1.971656268422,1.694879729769,7.170201615163
    ));
#676 = CARTESIAN_POINT('',(-1.980479420148,1.684669697764,7.254726031867
    ));
#677 = CARTESIAN_POINT('',(-1.993470072193,1.669434772367,7.338355897311
    ));
#678 = CARTESIAN_POINT('',(-2.010192009722,1.649284344609,7.420657150514
    ));
#679 = CARTESIAN_POINT('',(-2.051329618941,1.597875514974,7.587305439612
    ));
#680 = CARTESIAN_POINT('',(-2.076226998778,1.565906232346,7.67146149844)
  );
#681 = CARTESIAN_POINT('',(-2.104152952775,1.528682284267,7.753451347157
    ));
#682 = CARTESIAN_POINT('',(-2.13447606929,1.486276193135,7.833086452398)
  );
#683 = CARTESIAN_POINT('',(-2.166548869134,1.438728452474,7.910127215717
    ));
#684 = CARTESIAN_POINT('',(-2.235991458785,1.328521468494,8.065321930616
    ));
#685 = CARTESIAN_POINT('',(-2.273614787615,1.264806054715,8.143001008504
    ));
#686 = CARTESIAN_POINT('',(-2.311829564521,1.194835390086,8.217068599232
    ));
#687 = CARTESIAN_POINT('',(-2.349865202027,1.118433364827,8.287139503336
    ));
#688 = CARTESIAN_POINT('',(-2.386892909575,1.035396055565,8.352643102468
    ));
#689 = CARTESIAN_POINT('',(-2.4364471797,0.90846571636,8.437595656112));
#690 = CARTESIAN_POINT('',(-2.450593255458,0.870220282873,8.461501412303
    ));
#691 = CARTESIAN_POINT('',(-2.464335547692,0.830815249547,8.484426965342
    ));
#692 = CARTESIAN_POINT('',(-2.477600232814,0.790255897047,8.506302038893
    ));
#693 = CARTESIAN_POINT('',(-2.490311790267,0.748550811075,8.527052375105
    ));
#694 = CARTESIAN_POINT('',(-2.531704271383,0.601776670394,8.594025265883
    ));
#695 = CARTESIAN_POINT('',(-2.55755475557,0.490284414003,8.634772377506)
  );
#696 = CARTESIAN_POINT('',(-2.578316430395,0.372639825627,8.666835766344
    ));
#697 = CARTESIAN_POINT('',(-2.592711115724,0.250498285111,8.688852590674
    ));
#698 = CARTESIAN_POINT('',(-2.6,0.125666708576,8.7));
#699 = CARTESIAN_POINT('',(-2.6,2.602374448188E-16,8.7));
#700 = PCURVE('',#157,#701);
#701 = DEFINITIONAL_REPRESENTATION('',(#702),#730);
#702 = B_SPLINE_CURVE_WITH_KNOTS('',6,(#703,#704,#705,#706,#707,#708,
    #709,#710,#711,#712,#713,#714,#715,#716,#717,#718,#719,#720,#721,
    #722,#723,#724,#725,#726,#727,#728,#729),.UNSPECIFIED.,.F.,.F.,(7,5,
    5,5,5,7),(0.,0.204213614023,0.42292428484,0.661963390562,
    0.760626044247,1.),.UNSPECIFIED.);
#703 = CARTESIAN_POINT('',(0.,-1.967231557291));
#704 = CARTESIAN_POINT('',(5.009948032954E-02,-1.967231557291));
#705 = CARTESIAN_POINT('',(0.100118549555,-1.971656268422));
#706 = CARTESIAN_POINT('',(0.150065369271,-1.980479420148));
#707 = CARTESIAN_POINT('',(0.199934216509,-1.993470072193));
#708 = CARTESIAN_POINT('',(0.249689558527,-2.010192009722));
#709 = CARTESIAN_POINT('',(0.35227637723,-2.051329618941));
#710 = CARTESIAN_POINT('',(0.405123876643,-2.076226998778));
#711 = CARTESIAN_POINT('',(0.457933070117,-2.104152952775));
#712 = CARTESIAN_POINT('',(0.510845530605,-2.13447606929));
#713 = CARTESIAN_POINT('',(0.563988720282,-2.166548869134));
#714 = CARTESIAN_POINT('',(0.675955996226,-2.235991458785));
#715 = CARTESIAN_POINT('',(0.734911598317,-2.273614787615));
#716 = CARTESIAN_POINT('',(0.794626330228,-2.311829564521));
#717 = CARTESIAN_POINT('',(0.855362989764,-2.349865202027));
#718 = CARTESIAN_POINT('',(0.917387618964,-2.386892909575));
#719 = CARTESIAN_POINT('',(1.007232251065,-2.4364471797));
#720 = CARTESIAN_POINT('',(1.033750115634,-2.450593255458));
#721 = CARTESIAN_POINT('',(1.060546483006,-2.464335547692));
#722 = CARTESIAN_POINT('',(1.08763187106,-2.477600232814));
#723 = CARTESIAN_POINT('',(1.115017747382,-2.490311790267));
#724 = CARTESIAN_POINT('',(1.209918927951,-2.531704271383));
#725 = CARTESIAN_POINT('',(1.279534638253,-2.55755475557));
#726 = CARTESIAN_POINT('',(1.350869002055,-2.578316430395));
#727 = CARTESIAN_POINT('',(1.423444474302,-2.592711115724));
#728 = CARTESIAN_POINT('',(1.496874733515,-2.6));
#729 = CARTESIAN_POINT('',(1.570796326795,-2.6));
#730 = ( GEOMETRIC_REPRESENTATION_CONTEXT(2) 
PARAMETRIC_REPRESENTATION_CONTEXT() REPRESENTATION_CONTEXT('2D SPACE',''
  ) );
#731 = PCURVE('',#392,#732);
#732 = DEFINITIONAL_REPRESENTATION('',(#733),#761);
#733 = B_SPLINE_CURVE_WITH_KNOTS('',6,(#734,#735,#736,#737,#738,#739,
    #740,#741,#742,#743,#744,#745,#746,#747,#748,#749,#750,#751,#752,
    #753,#754,#755,#756,#757,#758,#759,#760),.UNSPECIFIED.,.F.,.F.,(7,5,
    5,5,5,7),(0.,0.204213614023,0.42292428484,0.661963390562,
    0.760626044247,1.),.UNSPECIFIED.);
#734 = CARTESIAN_POINT('',(0.712656628018,7.));
#735 = CARTESIAN_POINT('',(0.712656628018,6.91483088344));
#736 = CARTESIAN_POINT('',(0.710053868297,6.829798384837));
#737 = CARTESIAN_POINT('',(0.704863724372,6.745273968133));
#738 = CARTESIAN_POINT('',(0.697163507535,6.661644102689));
#739 = CARTESIAN_POINT('',(0.687093907512,6.579342849486));
#740 = CARTESIAN_POINT('',(0.661770056414,6.412694560388));
#741 = CARTESIAN_POINT('',(0.646186545563,6.32853850156));
#742 = CARTESIAN_POINT('',(0.628293370881,6.246548652843));
#743 = CARTESIAN_POINT('',(0.608251946917,6.166913547602));
#744 = CARTESIAN_POINT('',(0.586203593512,6.089872784283));
#745 = CARTESIAN_POINT('',(0.536103320427,5.934678069384));
#746 = CARTESIAN_POINT('',(0.507655948934,5.856998991496));
#747 = CARTESIAN_POINT('',(0.477019034317,5.782931400768));
#748 = CARTESIAN_POINT('',(0.444234202328,5.712860496664));
#749 = CARTESIAN_POINT('',(0.40930422512,5.647356897532));
#750 = CARTESIAN_POINT('',(0.356896322386,5.562404343888));
#751 = CARTESIAN_POINT('',(0.341215065398,5.538498587697));
#752 = CARTESIAN_POINT('',(0.325168428417,5.515573034658));
#753 = CARTESIAN_POINT('',(0.308760542441,5.493697961107));
#754 = CARTESIAN_POINT('',(0.291995239966,5.472947624895));
#755 = CARTESIAN_POINT('',(0.233341726896,5.405974734117));
#756 = CARTESIAN_POINT('',(0.189371167644,5.365227622494));
#757 = CARTESIAN_POINT('',(0.143525910689,5.333164233655));
#758 = CARTESIAN_POINT('',(9.63455832229E-02,5.311147409326));
#759 = CARTESIAN_POINT('',(4.833334945231E-02,5.3));
#760 = CARTESIAN_POINT('',(0.,5.3));
#761 = ( GEOMETRIC_REPRESENTATION_CONTEXT(2) 
PARAMETRIC_REPRESENTATION_CONTEXT() REPRESENTATION_CONTEXT('2D SPACE',''
  ) );
#762 = ORIENTED_EDGE('',*,*,#763,.T.);
#763 = EDGE_CURVE('',#667,#141,#764,.T.);
#764 = SEAM_CURVE('',#765,(#769,#776),.PCURVE_S1.);
#765 = LINE('',#766,#767);
#766 = CARTESIAN_POINT('',(0.,1.7,7.));
#767 = VECTOR('',#768,1.);
#768 = DIRECTION('',(-1.,-0.,-0.));
#769 = PCURVE('',#157,#770);
#770 = DEFINITIONAL_REPRESENTATION('',(#771),#775);
#771 = LINE('',#772,#773);
#772 = CARTESIAN_POINT('',(6.28318530718,0.));
#773 = VECTOR('',#774,1.);
#774 = DIRECTION('',(0.,-1.));
#775 = ( GEOMETRIC_REPRESENTATION_CONTEXT(2) 
PARAMETRIC_REPRESENTATION_CONTEXT() REPRESENTATION_CONTEXT('2D SPACE',''
  ) );
#776 = PCURVE('',#157,#777);
#777 = DEFINITIONAL_REPRESENTATION('',(#778),#782);
#778 = LINE('',#779,#780);
#779 = CARTESIAN_POINT('',(0.,0.));
#780 = VECTOR('',#781,1.);
#781 = DIRECTION('',(0.,-1.));
#782 = ( GEOMETRIC_REPRESENTATION_CONTEXT(2) 
PARAMETRIC_REPRESENTATION_CONTEXT() REPRESENTATION_CONTEXT('2D SPACE',''
  ) );
#783 = ORIENTED_EDGE('',*,*,#140,.T.);
#784 = ORIENTED_EDGE('',*,*,#763,.F.);
#785 = ORIENTED_EDGE('',*,*,#786,.F.);
#786 = EDGE_CURVE('',#787,#667,#789,.T.);
#787 = VERTEX_POINT('',#788);
#788 = CARTESIAN_POINT('',(-2.6,-6.368163355566E-16,5.3));
#789 = SURFACE_CURVE('',#790,(#818,#849),.PCURVE_S1.);
#790 = B_SPLINE_CURVE_WITH_KNOTS('',6,(#791,#792,#793,#794,#795,#796,
    #797,#798,#799,#800,#801,#802,#803,#804,#805,#806,#807,#808,#809,
    #810,#811,#812,#813,#814,#815,#816,#817),.UNSPECIFIED.,.F.,.F.,(7,5,
    5,5,5,7),(0.,0.23530694494,0.338954155071,0.576875914178,
    0.79674323986,1.),.UNSPECIFIED.);
#791 = CARTESIAN_POINT('',(-2.6,-1.561424668913E-16,5.3));
#792 = CARTESIAN_POINT('',(-2.6,0.123494601507,5.3));
#793 = CARTESIAN_POINT('',(-2.592960920009,0.246198948205,5.31076538091)
  );
#794 = CARTESIAN_POINT('',(-2.579052982182,0.366341496562,5.332037630273
    ));
#795 = CARTESIAN_POINT('',(-2.558969207377,0.482194406037,5.363043485131
    ));
#796 = CARTESIAN_POINT('',(-2.53391059196,0.592169757707,5.402499299704)
  );
#797 = CARTESIAN_POINT('',(-2.492861589592,0.740166665815,5.46878733782)
  );
#798 = CARTESIAN_POINT('',(-2.479599103952,0.784173797597,5.4904000205)
  );
#799 = CARTESIAN_POINT('',(-2.465716131402,0.826918007839,5.513264092429
    ));
#800 = CARTESIAN_POINT('',(-2.451300474116,0.868388620375,5.537292949368
    ));
#801 = CARTESIAN_POINT('',(-2.436437920681,0.908579051951,5.562404766271
    ));
#802 = CARTESIAN_POINT('',(-2.386261770583,1.036799421365,5.648475645081
    ));
#803 = CARTESIAN_POINT('',(-2.349391609707,1.119367079346,5.713738546433
    ));
#804 = CARTESIAN_POINT('',(-2.31153087887,1.195362021079,5.783521301551)
  );
#805 = CARTESIAN_POINT('',(-2.273496531617,1.264985453497,5.857262416426
    ));
#806 = CARTESIAN_POINT('',(-2.236048514052,1.328410991621,5.934582383647
    ));
#807 = CARTESIAN_POINT('',(-2.166581006413,1.438695751724,6.089771735127
    ));
#808 = CARTESIAN_POINT('',(-2.134332365749,1.486499325602,6.167227852554
    ));
#809 = CARTESIAN_POINT('',(-2.103854033426,1.529108037966,6.247307556913
    ));
#810 = CARTESIAN_POINT('',(-2.075800832424,1.566475753479,6.329765093867
    ));
#811 = CARTESIAN_POINT('',(-2.050818795514,1.59853200484,6.414407869468)
  );
#812 = CARTESIAN_POINT('',(-2.00980923232,1.649745485374,6.581231499147)
  );
#813 = CARTESIAN_POINT('',(-1.993232274859,1.669713649257,6.663178630382
    ));
#814 = CARTESIAN_POINT('',(-1.980358146016,1.68481003361,6.746437602263)
  );
#815 = CARTESIAN_POINT('',(-1.971615620121,1.694926768323,6.830579747411
    ));
#816 = CARTESIAN_POINT('',(-1.967231557291,1.7,6.915223007949));
#817 = CARTESIAN_POINT('',(-1.967231557291,1.7,7.));
#818 = PCURVE('',#157,#819);
#819 = DEFINITIONAL_REPRESENTATION('',(#820),#848);
#820 = B_SPLINE_CURVE_WITH_KNOTS('',6,(#821,#822,#823,#824,#825,#826,
    #827,#828,#829,#830,#831,#832,#833,#834,#835,#836,#837,#838,#839,
    #840,#841,#842,#843,#844,#845,#846,#847),.UNSPECIFIED.,.F.,.F.,(7,5,
    5,5,5,7),(0.,0.23530694494,0.338954155071,0.576875914178,
    0.79674323986,1.),.UNSPECIFIED.);
#821 = CARTESIAN_POINT('',(4.712388980385,-2.6));
#822 = CARTESIAN_POINT('',(4.785032863624,-2.6));
#823 = CARTESIAN_POINT('',(4.857211816755,-2.592960920009));
#824 = CARTESIAN_POINT('',(4.928574322732,-2.579052982182));
#825 = CARTESIAN_POINT('',(4.99874787647,-2.558969207377));
#826 = CARTESIAN_POINT('',(5.06727485014,-2.53391059196));
#827 = CARTESIAN_POINT('',(5.16266548537,-2.492861589592));
#828 = CARTESIAN_POINT('',(5.191487504958,-2.479599103952));
#829 = CARTESIAN_POINT('',(5.219976793641,-2.465716131402));
#830 = CARTESIAN_POINT('',(5.248146491724,-2.451300474116));
#831 = CARTESIAN_POINT('',(5.276008572884,-2.436437920681));
#832 = CARTESIAN_POINT('',(5.366849814893,-2.386261770583));
#833 = CARTESIAN_POINT('',(5.428572755026,-2.349391609707));
#834 = CARTESIAN_POINT('',(5.489021844072,-2.31153087887));
#835 = CARTESIAN_POINT('',(5.548459705028,-2.273496531617));
#836 = CARTESIAN_POINT('',(5.607145789282,-2.236048514052));
#837 = CARTESIAN_POINT('',(5.71913698877,-2.166581006413));
#838 = CARTESIAN_POINT('',(5.772565490208,-2.134332365749));
#839 = CARTESIAN_POINT('',(5.825761787333,-2.103854033426));
#840 = CARTESIAN_POINT('',(5.878854335855,-2.075800832424));
#841 = CARTESIAN_POINT('',(5.931985762065,-2.050818795514));
#842 = CARTESIAN_POINT('',(6.034637361505,-2.00980923232));
#843 = CARTESIAN_POINT('',(6.084166080929,-1.993232274859));
#844 = CARTESIAN_POINT('',(6.133807545695,-1.980358146016));
#845 = CARTESIAN_POINT('',(6.183526381294,-1.971615620121));
#846 = CARTESIAN_POINT('',(6.233316488326,-1.967231557291));
#847 = CARTESIAN_POINT('',(6.28318530718,-1.967231557291));
#848 = ( GEOMETRIC_REPRESENTATION_CONTEXT(2) 
PARAMETRIC_REPRESENTATION_CONTEXT() REPRESENTATION_CONTEXT('2D SPACE',''
  ) );
#849 = PCURVE('',#392,#850);
#850 = DEFINITIONAL_REPRESENTATION('',(#851),#879);
#851 = B_SPLINE_CURVE_WITH_KNOTS('',6,(#852,#853,#854,#855,#856,#857,
    #858,#859,#860,#861,#862,#863,#864,#865,#866,#867,#868,#869,#870,
    #871,#872,#873,#874,#875,#876,#877,#878),.UNSPECIFIED.,.F.,.F.,(7,5,
    5,5,5,7),(0.,0.23530694494,0.338954155071,0.576875914178,
    0.79674323986,1.),.UNSPECIFIED.);
#852 = CARTESIAN_POINT('',(0.,8.7));
#853 = CARTESIAN_POINT('',(4.749792365657E-02,8.7));
#854 = CARTESIAN_POINT('',(9.469198590569E-02,8.68923461909));
#855 = CARTESIAN_POINT('',(0.141093147046,8.667962369727));
#856 = CARTESIAN_POINT('',(0.186219284512,8.636956514869));
#857 = CARTESIAN_POINT('',(0.229554749521,8.597500700296));
#858 = CARTESIAN_POINT('',(0.288625594317,8.53121266218));
#859 = CARTESIAN_POINT('',(0.306299058535,8.5095999795));
#860 = CARTESIAN_POINT('',(0.323578762086,8.486735907571));
#861 = CARTESIAN_POINT('',(0.340460125829,8.462707050632));
#862 = CARTESIAN_POINT('',(0.356938218246,8.437595233729));
#863 = CARTESIAN_POINT('',(0.409895314271,8.351524354919));
#864 = CARTESIAN_POINT('',(0.444636307368,8.286261453567));
#865 = CARTESIAN_POINT('',(0.477251627882,8.216478698449));
#866 = CARTESIAN_POINT('',(0.507738437061,8.142737583574));
#867 = CARTESIAN_POINT('',(0.536055671912,8.065417616353));
#868 = CARTESIAN_POINT('',(0.586186363429,7.910228264873));
#869 = CARTESIAN_POINT('',(0.608353979731,7.832772147446));
#870 = CARTESIAN_POINT('',(0.628493221642,7.752692443087));
#871 = CARTESIAN_POINT('',(0.646460095058,7.670234906133));
#872 = CARTESIAN_POINT('',(0.662089955646,7.585592130532));
#873 = CARTESIAN_POINT('',(0.68732437395,7.418768500853));
#874 = CARTESIAN_POINT('',(0.69730446049,7.336821369618));
#875 = CARTESIAN_POINT('',(0.704935063535,7.253562397737));
#876 = CARTESIAN_POINT('',(0.710077778674,7.169420252589));
#877 = CARTESIAN_POINT('',(0.712656628018,7.084776992051));
#878 = CARTESIAN_POINT('',(0.712656628018,7.));
#879 = ( GEOMETRIC_REPRESENTATION_CONTEXT(2) 
PARAMETRIC_REPRESENTATION_CONTEXT() REPRESENTATION_CONTEXT('2D SPACE',''
  ) );
#880 = ORIENTED_EDGE('',*,*,#881,.F.);
#881 = EDGE_CURVE('',#669,#787,#882,.T.);
#882 = SURFACE_CURVE('',#883,(#941,#1002),.PCURVE_S1.);
#883 = B_SPLINE_CURVE_WITH_KNOTS('',6,(#884,#885,#886,#887,#888,#889,
    #890,#891,#892,#893,#894,#895,#896,#897,#898,#899,#900,#901,#902,
    #903,#904,#905,#906,#907,#908,#909,#910,#911,#912,#913,#914,#915,
    #916,#917,#918,#919,#920,#921,#922,#923,#924,#925,#926,#927,#928,
    #929,#930,#931,#932,#933,#934,#935,#936,#937,#938,#939,#940),
  .UNSPECIFIED.,.F.,.F.,(7,5,5,5,5,5,5,5,5,5,5,7),(0.,0.117728075632,
    0.169584549991,0.288620897914,0.398624302289,0.500317155051,
    0.567122455536,0.602425946545,0.711693573479,0.831117254149,
    0.880409015461,1.),.UNSPECIFIED.);
#884 = CARTESIAN_POINT('',(-2.6,0.,8.7));
#885 = CARTESIAN_POINT('',(-2.6,-0.123494601587,8.7));
#886 = CARTESIAN_POINT('',(-2.59296092,-0.246198948186,8.689234619076));
#887 = CARTESIAN_POINT('',(-2.579052982194,-0.366341496484,
    8.667962369743));
#888 = CARTESIAN_POINT('',(-2.558969207391,-0.482194406016,
    8.636956514892));
#889 = CARTESIAN_POINT('',(-2.53391059194,-0.592169757779,8.597500700264
    ));
#890 = CARTESIAN_POINT('',(-2.492861587581,-0.740166673066,
    8.531212658932));
#891 = CARTESIAN_POINT('',(-2.479599104617,-0.784173796484,
    8.509599980695));
#892 = CARTESIAN_POINT('',(-2.465716133556,-0.826918001314,
    8.486735911165));
#893 = CARTESIAN_POINT('',(-2.451300474647,-0.868388617916,
    8.462707051435));
#894 = CARTESIAN_POINT('',(-2.436437918502,-0.908579057519,
    8.437595229991));
#895 = CARTESIAN_POINT('',(-2.386261770583,-1.036799421365,
    8.351524354919));
#896 = CARTESIAN_POINT('',(-2.349391609707,-1.119367079347,
    8.286261453567));
#897 = CARTESIAN_POINT('',(-2.31153087887,-1.19536202108,8.216478698449)
  );
#898 = CARTESIAN_POINT('',(-2.273496531617,-1.264985453497,
    8.142737583574));
#899 = CARTESIAN_POINT('',(-2.236048514052,-1.328410991621,
    8.065417616353));
#900 = CARTESIAN_POINT('',(-2.166581006413,-1.438695751724,
    7.910228264873));
#901 = CARTESIAN_POINT('',(-2.134332365749,-1.486499325602,
    7.832772147446));
#902 = CARTESIAN_POINT('',(-2.103854033426,-1.529108037966,
    7.752692443087));
#903 = CARTESIAN_POINT('',(-2.075800832424,-1.566475753479,
    7.670234906133));
#904 = CARTESIAN_POINT('',(-2.050818795514,-1.59853200484,7.585592130531
    ));
#905 = CARTESIAN_POINT('',(-2.00980923232,-1.649745485374,7.418768500853
    ));
#906 = CARTESIAN_POINT('',(-1.993232274859,-1.669713649257,
    7.336821369618));
#907 = CARTESIAN_POINT('',(-1.980358146016,-1.68481003361,7.253562397737
    ));
#908 = CARTESIAN_POINT('',(-1.971615620121,-1.694926768323,
    7.169420252589));
#909 = CARTESIAN_POINT('',(-1.967231557291,-1.7,7.084776992051));
#910 = CARTESIAN_POINT('',(-1.967231557291,-1.7,6.944307271609));
#911 = CARTESIAN_POINT('',(-1.969123412013,-1.697810549343,
    6.888634629236));
#912 = CARTESIAN_POINT('',(-1.972905300167,-1.693434746626,
    6.833102790292));
#913 = CARTESIAN_POINT('',(-1.978532206423,-1.686885791841,
    6.777839092779));
#914 = CARTESIAN_POINT('',(-1.985918508572,-1.678191166945,
    6.722977314716));
#915 = CARTESIAN_POINT('',(-1.999708301274,-1.661692504737,
    6.639951997089));
#916 = CARTESIAN_POINT('',(-2.004934216105,-1.655400313108,
    6.611390583053));
#917 = CARTESIAN_POINT('',(-2.010601092378,-1.648525654256,
    6.582988808611));
#918 = CARTESIAN_POINT('',(-2.016690408775,-1.641073942747,
    6.554760764719));
#919 = CARTESIAN_POINT('',(-2.023182339448,-1.633050594994,
    6.526719076136));
#920 = CARTESIAN_POINT('',(-2.051329618941,-1.597875514974,
    6.412694560388));
#921 = CARTESIAN_POINT('',(-2.076226998778,-1.565906232346,6.32853850156
    ));
#922 = CARTESIAN_POINT('',(-2.104152952775,-1.528682284267,
    6.246548652843));
#923 = CARTESIAN_POINT('',(-2.13447606929,-1.486276193135,6.166913547602
    ));
#924 = CARTESIAN_POINT('',(-2.166548869134,-1.438728452474,
    6.089872784283));
#925 = CARTESIAN_POINT('',(-2.235991455292,-1.328521474038,
    5.934678077191));
#926 = CARTESIAN_POINT('',(-2.273614793478,-1.264806043066,
    5.856998979778));
#927 = CARTESIAN_POINT('',(-2.311829564337,-1.194835392116,
    5.782931400243));
#928 = CARTESIAN_POINT('',(-2.349865196065,-1.11843337745,5.71286050816)
  );
#929 = CARTESIAN_POINT('',(-2.386892913432,-1.035396045686,5.64735689092
    ));
#930 = CARTESIAN_POINT('',(-2.4364471797,-0.90846571636,5.562404343888)
  );
#931 = CARTESIAN_POINT('',(-2.450593255458,-0.870220282873,
    5.538498587697));
#932 = CARTESIAN_POINT('',(-2.464335547692,-0.830815249547,
    5.515573034658));
#933 = CARTESIAN_POINT('',(-2.477600232814,-0.790255897047,
    5.493697961107));
#934 = CARTESIAN_POINT('',(-2.490311790267,-0.748550811075,
    5.472947624895));
#935 = CARTESIAN_POINT('',(-2.531704271384,-0.601776670392,
    5.405974734116));
#936 = CARTESIAN_POINT('',(-2.55755475557,-0.490284414004,5.365227622495
    ));
#937 = CARTESIAN_POINT('',(-2.578316430395,-0.372639825629,
    5.333164233656));
#938 = CARTESIAN_POINT('',(-2.592711115724,-0.250498285111,
    5.311147409326));
#939 = CARTESIAN_POINT('',(-2.6,-0.125666708574,5.3));
#940 = CARTESIAN_POINT('',(-2.6,-4.440892098501E-16,5.3));
#941 = PCURVE('',#157,#942);
#942 = DEFINITIONAL_REPRESENTATION('',(#943),#1001);
#943 = B_SPLINE_CURVE_WITH_KNOTS('',6,(#944,#945,#946,#947,#948,#949,
    #950,#951,#952,#953,#954,#955,#956,#957,#958,#959,#960,#961,#962,
    #963,#964,#965,#966,#967,#968,#969,#970,#971,#972,#973,#974,#975,
    #976,#977,#978,#979,#980,#981,#982,#983,#984,#985,#986,#987,#988,
    #989,#990,#991,#992,#993,#994,#995,#996,#997,#998,#999,#1000),
  .UNSPECIFIED.,.F.,.F.,(7,5,5,5,5,5,5,5,5,5,5,7),(0.,0.117728075632,
    0.169584549991,0.288620897914,0.398624302289,0.500317155051,
    0.567122455536,0.602425946545,0.711693573479,0.831117254149,
    0.880409015461,1.),.UNSPECIFIED.);
#944 = CARTESIAN_POINT('',(1.570796326795,-2.6));
#945 = CARTESIAN_POINT('',(1.643440210081,-2.6));
#946 = CARTESIAN_POINT('',(1.715619163154,-2.59296092));
#947 = CARTESIAN_POINT('',(1.786981669097,-2.579052982194));
#948 = CARTESIAN_POINT('',(1.857155222863,-2.558969207391));
#949 = CARTESIAN_POINT('',(1.925682196597,-2.53391059194));
#950 = CARTESIAN_POINT('',(2.021072836454,-2.492861587581));
#951 = CARTESIAN_POINT('',(2.049894850453,-2.479599104617));
#952 = CARTESIAN_POINT('',(2.078384135656,-2.465716133556));
#953 = CARTESIAN_POINT('',(2.106553836637,-2.451300474647));
#954 = CARTESIAN_POINT('',(2.13441592324,-2.436437918502));
#955 = CARTESIAN_POINT('',(2.225257161304,-2.386261770583));
#956 = CARTESIAN_POINT('',(2.286980101436,-2.349391609707));
#957 = CARTESIAN_POINT('',(2.347429190482,-2.31153087887));
#958 = CARTESIAN_POINT('',(2.406867051438,-2.273496531617));
#959 = CARTESIAN_POINT('',(2.465553135693,-2.236048514052));
#960 = CARTESIAN_POINT('',(2.57754433518,-2.166581006413));
#961 = CARTESIAN_POINT('',(2.630972836618,-2.134332365749));
#962 = CARTESIAN_POINT('',(2.684169133743,-2.103854033426));
#963 = CARTESIAN_POINT('',(2.737261682265,-2.075800832424));
#964 = CARTESIAN_POINT('',(2.790393108475,-2.050818795514));
#965 = CARTESIAN_POINT('',(2.893044707915,-2.00980923232));
#966 = CARTESIAN_POINT('',(2.942573427339,-1.993232274859));
#967 = CARTESIAN_POINT('',(2.992214892105,-1.980358146016));
#968 = CARTESIAN_POINT('',(3.041933727705,-1.971615620121));
#969 = CARTESIAN_POINT('',(3.091723834736,-1.967231557291));
#970 = CARTESIAN_POINT('',(3.174353082055,-1.967231557291));
#971 = CARTESIAN_POINT('',(3.207101718274,-1.969123412013));
#972 = CARTESIAN_POINT('',(3.23983073106,-1.972905300167));
#973 = CARTESIAN_POINT('',(3.272528480118,-1.978532206423));
#974 = CARTESIAN_POINT('',(3.305178027342,-1.985918508572));
#975 = CARTESIAN_POINT('',(3.354971403945,-1.999708301274));
#976 = CARTESIAN_POINT('',(3.372171432667,-2.004934216105));
#977 = CARTESIAN_POINT('',(3.389355322307,-2.010601092378));
#978 = CARTESIAN_POINT('',(3.406523417025,-2.016690408775));
#979 = CARTESIAN_POINT('',(3.423676817098,-2.023182339448));
#980 = CARTESIAN_POINT('',(3.49386903082,-2.051329618941));
#981 = CARTESIAN_POINT('',(3.546716530233,-2.076226998778));
#982 = CARTESIAN_POINT('',(3.599525723707,-2.104152952775));
#983 = CARTESIAN_POINT('',(3.652438184195,-2.13447606929));
#984 = CARTESIAN_POINT('',(3.705581373872,-2.166548869134));
#985 = CARTESIAN_POINT('',(3.817548644184,-2.235991455292));
#986 = CARTESIAN_POINT('',(3.876504261763,-2.273614793478));
#987 = CARTESIAN_POINT('',(3.936218983167,-2.311829564337));
#988 = CARTESIAN_POINT('',(3.996955633175,-2.349865196065));
#989 = CARTESIAN_POINT('',(4.058980279547,-2.386892913432));
#990 = CARTESIAN_POINT('',(4.148824904655,-2.4364471797));
#991 = CARTESIAN_POINT('',(4.175342769224,-2.450593255458));
#992 = CARTESIAN_POINT('',(4.202139136596,-2.464335547692));
#993 = CARTESIAN_POINT('',(4.22922452465,-2.477600232814));
#994 = CARTESIAN_POINT('',(4.256610400972,-2.490311790267));
#995 = CARTESIAN_POINT('',(4.351511581542,-2.531704271384));
#996 = CARTESIAN_POINT('',(4.421127291843,-2.55755475557));
#997 = CARTESIAN_POINT('',(4.492461655644,-2.578316430395));
#998 = CARTESIAN_POINT('',(4.565037127891,-2.592711115724));
#999 = CARTESIAN_POINT('',(4.638467387106,-2.6));
#1000 = CARTESIAN_POINT('',(4.712388980385,-2.6));
#1001 = ( GEOMETRIC_REPRESENTATION_CONTEXT(2) 
PARAMETRIC_REPRESENTATION_CONTEXT() REPRESENTATION_CONTEXT('2D SPACE',''
  ) );
#1002 = PCURVE('',#392,#1003);
#1003 = DEFINITIONAL_REPRESENTATION('',(#1004),#1062);
#1004 = B_SPLINE_CURVE_WITH_KNOTS('',6,(#1005,#1006,#1007,#1008,#1009,
    #1010,#1011,#1012,#1013,#1014,#1015,#1016,#1017,#1018,#1019,#1020,
    #1021,#1022,#1023,#1024,#1025,#1026,#1027,#1028,#1029,#1030,#1031,
    #1032,#1033,#1034,#1035,#1036,#1037,#1038,#1039,#1040,#1041,#1042,
    #1043,#1044,#1045,#1046,#1047,#1048,#1049,#1050,#1051,#1052,#1053,
    #1054,#1055,#1056,#1057,#1058,#1059,#1060,#1061),.UNSPECIFIED.,.F.,
  .F.,(7,5,5,5,5,5,5,5,5,5,5,7),(0.,0.117728075632,0.169584549991,
    0.288620897914,0.398624302289,0.500317155051,0.567122455536,
    0.602425946545,0.711693573479,0.831117254149,0.880409015461,1.),
  .UNSPECIFIED.);
#1005 = CARTESIAN_POINT('',(6.28318530718,5.3));
#1006 = CARTESIAN_POINT('',(6.235687383492,5.3));
#1007 = CARTESIAN_POINT('',(6.188493321281,5.310765380924));
#1008 = CARTESIAN_POINT('',(6.142092160164,5.332037630257));
#1009 = CARTESIAN_POINT('',(6.096966022677,5.363043485108));
#1010 = CARTESIAN_POINT('',(6.053630557629,5.402499299736));
#1011 = CARTESIAN_POINT('',(5.994559709969,5.468787341068));
#1012 = CARTESIAN_POINT('',(5.976886249132,5.490400019305));
#1013 = CARTESIAN_POINT('',(5.959606547739,5.513264088835));
#1014 = CARTESIAN_POINT('',(5.942725182314,5.537292948565));
#1015 = CARTESIAN_POINT('',(5.926247086634,5.562404770009));
#1016 = CARTESIAN_POINT('',(5.873289992908,5.648475645081));
#1017 = CARTESIAN_POINT('',(5.838548999812,5.713738546433));
#1018 = CARTESIAN_POINT('',(5.805933679297,5.783521301551));
#1019 = CARTESIAN_POINT('',(5.775446870119,5.857262416426));
#1020 = CARTESIAN_POINT('',(5.747129635268,5.934582383647));
#1021 = CARTESIAN_POINT('',(5.69699894375,6.089771735127));
#1022 = CARTESIAN_POINT('',(5.674831327449,6.167227852554));
#1023 = CARTESIAN_POINT('',(5.654692085538,6.247307556913));
#1024 = CARTESIAN_POINT('',(5.636725212121,6.329765093867));
#1025 = CARTESIAN_POINT('',(5.621095351534,6.414407869469));
#1026 = CARTESIAN_POINT('',(5.59586093323,6.581231499147));
#1027 = CARTESIAN_POINT('',(5.58588084669,6.663178630382));
#1028 = CARTESIAN_POINT('',(5.578250243644,6.746437602263));
#1029 = CARTESIAN_POINT('',(5.573107528506,6.830579747411));
#1030 = CARTESIAN_POINT('',(5.570528679161,6.915223007949));
#1031 = CARTESIAN_POINT('',(5.570528679161,7.055692728391));
#1032 = CARTESIAN_POINT('',(5.571641585818,7.111365370764));
#1033 = CARTESIAN_POINT('',(5.573866083581,7.166897209708));
#1034 = CARTESIAN_POINT('',(5.577186918398,7.222160907221));
#1035 = CARTESIAN_POINT('',(5.581574671804,7.277022685284));
#1036 = CARTESIAN_POINT('',(5.589844924312,7.360048002911));
#1037 = CARTESIAN_POINT('',(5.592990820018,7.388609416947));
#1038 = CARTESIAN_POINT('',(5.59641740566,7.417011191389));
#1039 = CARTESIAN_POINT('',(5.600118608798,7.445239235281));
#1040 = CARTESIAN_POINT('',(5.60408810103,7.473280923864));
#1041 = CARTESIAN_POINT('',(5.621415250765,7.587305439612));
#1042 = CARTESIAN_POINT('',(5.636998761617,7.67146149844));
#1043 = CARTESIAN_POINT('',(5.654891936298,7.753451347157));
#1044 = CARTESIAN_POINT('',(5.674933360262,7.833086452398));
#1045 = CARTESIAN_POINT('',(5.696981713667,7.910127215717));
#1046 = CARTESIAN_POINT('',(5.747081984232,8.065321922809));
#1047 = CARTESIAN_POINT('',(5.775529363281,8.143001020222));
#1048 = CARTESIAN_POINT('',(5.806166272131,8.217068599757));
#1049 = CARTESIAN_POINT('',(5.838951099464,8.28713949184));
#1050 = CARTESIAN_POINT('',(5.873881086139,8.35264310908));
#1051 = CARTESIAN_POINT('',(5.926288984794,8.437595656112));
#1052 = CARTESIAN_POINT('',(5.941970241782,8.461501412303));
#1053 = CARTESIAN_POINT('',(5.958016878763,8.484426965342));
#1054 = CARTESIAN_POINT('',(5.974424764738,8.506302038893));
#1055 = CARTESIAN_POINT('',(5.991190067213,8.527052375105));
#1056 = CARTESIAN_POINT('',(6.049843580285,8.594025265884));
#1057 = CARTESIAN_POINT('',(6.093814139535,8.634772377505));
#1058 = CARTESIAN_POINT('',(6.13965939649,8.666835766344));
#1059 = CARTESIAN_POINT('',(6.186839723956,8.688852590674));
#1060 = CARTESIAN_POINT('',(6.234851957728,8.7));
#1061 = CARTESIAN_POINT('',(6.28318530718,8.7));
#1062 = ( GEOMETRIC_REPRESENTATION_CONTEXT(2) 
PARAMETRIC_REPRESENTATION_CONTEXT() REPRESENTATION_CONTEXT('2D SPACE',''
  ) );
#1063 = ADVANCED_FACE('',(#1064),#213,.F.);
#1064 = FACE_BOUND('',#1065,.F.);
#1065 = EDGE_LOOP('',(#1066,#1067,#1068,#1069));
#1066 = ORIENTED_EDGE('',*,*,#513,.F.);
#1067 = ORIENTED_EDGE('',*,*,#431,.T.);
#1068 = ORIENTED_EDGE('',*,*,#197,.T.);
#1069 = ORIENTED_EDGE('',*,*,#1070,.F.);
#1070 = EDGE_CURVE('',#514,#198,#1071,.T.);
#1071 = SURFACE_CURVE('',#1072,(#1076,#1083),.PCURVE_S1.);
#1072 = LINE('',#1073,#1074);
#1073 = CARTESIAN_POINT('',(12.,-8.,0.));
#1074 = VECTOR('',#1075,1.);
#1075 = DIRECTION('',(0.,0.,1.));
#1076 = PCURVE('',#213,#1077);
#1077 = DEFINITIONAL_REPRESENTATION('',(#1078),#1082);
#1078 = LINE('',#1079,#1080);
#1079 = CARTESIAN_POINT('',(0.,26.));
#1080 = VECTOR('',#1081,1.);
#1081 = DIRECTION('',(1.,0.));
#1082 = ( GEOMETRIC_REPRESENTATION_CONTEXT(2) 
PARAMETRIC_REPRESENTATION_CONTEXT() REPRESENTATION_CONTEXT('2D SPACE',''
  ) );
#1083 = PCURVE('',#246,#1084);
#1084 = DEFINITIONAL_REPRESENTATION('',(#1085),#1089);
#1085 = LINE('',#1086,#1087);
#1086 = CARTESIAN_POINT('',(-1.570796326795,0.));
#1087 = VECTOR('',#1088,1.);
#1088 = DIRECTION('',(-0.,1.));
#1089 = ( GEOMETRIC_REPRESENTATION_CONTEXT(2) 
PARAMETRIC_REPRESENTATION_CONTEXT() REPRESENTATION_CONTEXT('2D SPACE',''
  ) );
#1090 = ADVANCED_FACE('',(#1091),#331,.T.);
#1091 = FACE_BOUND('',#1092,.T.);
#1092 = EDGE_LOOP('',(#1093,#1094,#1095,#1096));
#1093 = ORIENTED_EDGE('',*,*,#611,.F.);
#1094 = ORIENTED_EDGE('',*,*,#485,.T.);
#1095 = ORIENTED_EDGE('',*,*,#315,.T.);
#1096 = ORIENTED_EDGE('',*,*,#1097,.F.);
#1097 = EDGE_CURVE('',#588,#287,#1098,.T.);
#1098 = SURFACE_CURVE('',#1099,(#1103,#1110),.PCURVE_S1.);
#1099 = LINE('',#1100,#1101);
#1100 = CARTESIAN_POINT('',(12.,8.,0.));
#1101 = VECTOR('',#1102,1.);
#1102 = DIRECTION('',(0.,0.,1.));
#1103 = PCURVE('',#331,#1104);
#1104 = DEFINITIONAL_REPRESENTATION('',(#1105),#1109);
#1105 = LINE('',#1106,#1107);
#1106 = CARTESIAN_POINT('',(0.,26.));
#1107 = VECTOR('',#1108,1.);
#1108 = DIRECTION('',(1.,0.));
#1109 = ( GEOMETRIC_REPRESENTATION_CONTEXT(2) 
PARAMETRIC_REPRESENTATION_CONTEXT() REPRESENTATION_CONTEXT('2D SPACE',''
  ) );
#1110 = PCURVE('',#303,#1111);
#1111 = DEFINITIONAL_REPRESENTATION('',(#1112),#1116);
#1112 = LINE('',#1113,#1114);
#1113 = CARTESIAN_POINT('',(1.570796326795,0.));
#1114 = VECTOR('',#1115,1.);
#1115 = DIRECTION('',(0.,1.));
#1116 = ( GEOMETRIC_REPRESENTATION_CONTEXT(2) 
PARAMETRIC_REPRESENTATION_CONTEXT() REPRESENTATION_CONTEXT('2D SPACE',''
  ) );
#1117 = ADVANCED_FACE('',(#1118),#246,.T.);
#1118 = FACE_BOUND('',#1119,.F.);
#1119 = EDGE_LOOP('',(#1120,#1121,#1122,#1123));
#1120 = ORIENTED_EDGE('',*,*,#536,.T.);
#1121 = ORIENTED_EDGE('',*,*,#1070,.T.);
#1122 = ORIENTED_EDGE('',*,*,#225,.F.);
#1123 = ORIENTED_EDGE('',*,*,#1124,.F.);
#1124 = EDGE_CURVE('',#537,#226,#1125,.T.);
#1125 = SURFACE_CURVE('',#1126,(#1130,#1137),.PCURVE_S1.);
#1126 = LINE('',#1127,#1128);
#1127 = CARTESIAN_POINT('',(14.,-6.,0.));
#1128 = VECTOR('',#1129,1.);
#1129 = DIRECTION('',(0.,0.,1.));
#1130 = PCURVE('',#246,#1131);
#1131 = DEFINITIONAL_REPRESENTATION('',(#1132),#1136);
#1132 = LINE('',#1133,#1134);
#1133 = CARTESIAN_POINT('',(-0.,0.));
#1134 = VECTOR('',#1135,1.);
#1135 = DIRECTION('',(-0.,1.));
#1136 = ( GEOMETRIC_REPRESENTATION_CONTEXT(2) 
PARAMETRIC_REPRESENTATION_CONTEXT() REPRESENTATION_CONTEXT('2D SPACE',''
  ) );
#1137 = PCURVE('',#274,#1138);
#1138 = DEFINITIONAL_REPRESENTATION('',(#1139),#1143);
#1139 = LINE('',#1140,#1141);
#1140 = CARTESIAN_POINT('',(0.,-2.));
#1141 = VECTOR('',#1142,1.);
#1142 = DIRECTION('',(1.,0.));
#1143 = ( GEOMETRIC_REPRESENTATION_CONTEXT(2) 
PARAMETRIC_REPRESENTATION_CONTEXT() REPRESENTATION_CONTEXT('2D SPACE',''
  ) );
#1144 = ADVANCED_FACE('',(#1145),#303,.T.);
#1145 = FACE_BOUND('',#1146,.T.);
#1146 = EDGE_LOOP('',(#1147,#1148,#1149,#1150));
#1147 = ORIENTED_EDGE('',*,*,#587,.T.);
#1148 = ORIENTED_EDGE('',*,*,#1097,.T.);
#1149 = ORIENTED_EDGE('',*,*,#286,.F.);
#1150 = ORIENTED_EDGE('',*,*,#1151,.F.);
#1151 = EDGE_CURVE('',#565,#259,#1152,.T.);
#1152 = SURFACE_CURVE('',#1153,(#1157,#1164),.PCURVE_S1.);
#1153 = LINE('',#1154,#1155);
#1154 = CARTESIAN_POINT('',(14.,6.,0.));
#1155 = VECTOR('',#1156,1.);
#1156 = DIRECTION('',(0.,0.,1.));
#1157 = PCURVE('',#303,#1158);
#1158 = DEFINITIONAL_REPRESENTATION('',(#1159),#1163);
#1159 = LINE('',#1160,#1161);
#1160 = CARTESIAN_POINT('',(0.,0.));
#1161 = VECTOR('',#1162,1.);
#1162 = DIRECTION('',(0.,1.));
#1163 = ( GEOMETRIC_REPRESENTATION_CONTEXT(2) 
PARAMETRIC_REPRESENTATION_CONTEXT() REPRESENTATION_CONTEXT('2D SPACE',''
  ) );
#1164 = PCURVE('',#274,#1165);
#1165 = DEFINITIONAL_REPRESENTATION('',(#1166),#1170);
#1166 = LINE('',#1167,#1168);
#1167 = CARTESIAN_POINT('',(0.,-14.));
#1168 = VECTOR('',#1169,1.);
#1169 = DIRECTION('',(1.,0.));
#1170 = ( GEOMETRIC_REPRESENTATION_CONTEXT(2) 
PARAMETRIC_REPRESENTATION_CONTEXT() REPRESENTATION_CONTEXT('2D SPACE',''
  ) );
#1171 = ADVANCED_FACE('',(#1172,#1178),#274,.T.);
#1172 = FACE_BOUND('',#1173,.T.);
#1173 = EDGE_LOOP('',(#1174,#1175,#1176,#1177));
#1174 = ORIENTED_EDGE('',*,*,#258,.F.);
#1175 = ORIENTED_EDGE('',*,*,#1124,.F.);
#1176 = ORIENTED_EDGE('',*,*,#564,.T.);
#1177 = ORIENTED_EDGE('',*,*,#1151,.T.);
#1178 = FACE_BOUND('',#1179,.T.);
#1179 = EDGE_LOOP('',(#1180));
#1180 = ORIENTED_EDGE('',*,*,#1181,.T.);
#1181 = EDGE_CURVE('',#1182,#1182,#1184,.T.);
#1182 = VERTEX_POINT('',#1183);
#1183 = CARTESIAN_POINT('',(14.,1.7,7.));
#1184 = SURFACE_CURVE('',#1185,(#1190,#1201),.PCURVE_S1.);
#1185 = CIRCLE('',#1186,1.7);
#1186 = AXIS2_PLACEMENT_3D('',#1187,#1188,#1189);
#1187 = CARTESIAN_POINT('',(14.,0.,7.));
#1188 = DIRECTION('',(-1.,0.,0.));
#1189 = DIRECTION('',(0.,1.,0.));
#1190 = PCURVE('',#274,#1191);
#1191 = DEFINITIONAL_REPRESENTATION('',(#1192),#1200);
#1192 = ( BOUNDED_CURVE() B_SPLINE_CURVE(2,(#1193,#1194,#1195,#1196,
#1197,#1198,#1199),.UNSPECIFIED.,.T.,.F.) B_SPLINE_CURVE_WITH_KNOTS((1,2
    ,2,2,2,1),(-2.094395102393,0.,2.094395102393,4.188790204786,
6.28318530718,8.377580409573),.UNSPECIFIED.) CURVE() 
GEOMETRIC_REPRESENTATION_ITEM() RATIONAL_B_SPLINE_CURVE((1.,0.5,1.,0.5,
1.,0.5,1.)) REPRESENTATION_ITEM('') );
#1193 = CARTESIAN_POINT('',(7.,-9.7));
#1194 = CARTESIAN_POINT('',(4.055513627133,-9.7));
#1195 = CARTESIAN_POINT('',(5.527756813566,-7.15));
#1196 = CARTESIAN_POINT('',(7.,-4.6));
#1197 = CARTESIAN_POINT('',(8.472243186434,-7.15));
#1198 = CARTESIAN_POINT('',(9.944486372867,-9.7));
#1199 = CARTESIAN_POINT('',(7.,-9.7));
#1200 = ( GEOMETRIC_REPRESENTATION_CONTEXT(2) 
PARAMETRIC_REPRESENTATION_CONTEXT() REPRESENTATION_CONTEXT('2D SPACE',''
  ) );
#1201 = PCURVE('',#1202,#1207);
#1202 = CYLINDRICAL_SURFACE('',#1203,1.7);
#1203 = AXIS2_PLACEMENT_3D('',#1204,#1205,#1206);
#1204 = CARTESIAN_POINT('',(0.,0.,7.));
#1205 = DIRECTION('',(-1.,-0.,-0.));
#1206 = DIRECTION('',(0.,1.,0.));
#1207 = DEFINITIONAL_REPRESENTATION('',(#1208),#1212);
#1208 = LINE('',#1209,#1210);
#1209 = CARTESIAN_POINT('',(-6.28318530718,-14.));
#1210 = VECTOR('',#1211,1.);
#1211 = DIRECTION('',(1.,-0.));
#1212 = ( GEOMETRIC_REPRESENTATION_CONTEXT(2) 
PARAMETRIC_REPRESENTATION_CONTEXT() REPRESENTATION_CONTEXT('2D SPACE',''
  ) );
#1213 = ADVANCED_FACE('',(#1214,#1265),#392,.F.);
#1214 = FACE_BOUND('',#1215,.F.);
#1215 = EDGE_LOOP('',(#1216,#1237,#1238,#1239,#1240,#1241,#1262,#1263,
    #1264));
#1216 = ORIENTED_EDGE('',*,*,#1217,.T.);
#1217 = EDGE_CURVE('',#787,#636,#1218,.T.);
#1218 = SEAM_CURVE('',#1219,(#1223,#1230),.PCURVE_S1.);
#1219 = LINE('',#1220,#1221);
#1220 = CARTESIAN_POINT('',(-2.6,-6.368163355566E-16,14.));
#1221 = VECTOR('',#1222,1.);
#1222 = DIRECTION('',(0.,0.,-1.));
#1223 = PCURVE('',#392,#1224);
#1224 = DEFINITIONAL_REPRESENTATION('',(#1225),#1229);
#1225 = LINE('',#1226,#1227);
#1226 = CARTESIAN_POINT('',(6.28318530718,-0.));
#1227 = VECTOR('',#1228,1.);
#1228 = DIRECTION('',(0.,1.));
#1229 = ( GEOMETRIC_REPRESENTATION_CONTEXT(2) 
PARAMETRIC_REPRESENTATION_CONTEXT() REPRESENTATION_CONTEXT('2D SPACE',''
  ) );
#1230 = PCURVE('',#392,#1231);
#1231 = DEFINITIONAL_REPRESENTATION('',(#1232),#1236);
#1232 = LINE('',#1233,#1234);
#1233 = CARTESIAN_POINT('',(0.,-0.));
#1234 = VECTOR('',#1235,1.);
#1235 = DIRECTION('',(0.,1.));
#1236 = ( GEOMETRIC_REPRESENTATION_CONTEXT(2) 
PARAMETRIC_REPRESENTATION_CONTEXT() REPRESENTATION_CONTEXT('2D SPACE',''
  ) );
#1237 = ORIENTED_EDGE('',*,*,#635,.F.);
#1238 = ORIENTED_EDGE('',*,*,#1217,.F.);
#1239 = ORIENTED_EDGE('',*,*,#786,.T.);
#1240 = ORIENTED_EDGE('',*,*,#666,.T.);
#1241 = ORIENTED_EDGE('',*,*,#1242,.F.);
#1242 = EDGE_CURVE('',#372,#669,#1243,.T.);
#1243 = SEAM_CURVE('',#1244,(#1248,#1255),.PCURVE_S1.);
#1244 = LINE('',#1245,#1246);
#1245 = CARTESIAN_POINT('',(-2.6,-6.368163355566E-16,14.));
#1246 = VECTOR('',#1247,1.);
#1247 = DIRECTION('',(0.,0.,-1.));
#1248 = PCURVE('',#392,#1249);
#1249 = DEFINITIONAL_REPRESENTATION('',(#1250),#1254);
#1250 = LINE('',#1251,#1252);
#1251 = CARTESIAN_POINT('',(6.28318530718,-0.));
#1252 = VECTOR('',#1253,1.);
#1253 = DIRECTION('',(0.,1.));
#1254 = ( GEOMETRIC_REPRESENTATION_CONTEXT(2) 
PARAMETRIC_REPRESENTATION_CONTEXT() REPRESENTATION_CONTEXT('2D SPACE',''
  ) );
#1255 = PCURVE('',#392,#1256);
#1256 = DEFINITIONAL_REPRESENTATION('',(#1257),#1261);
#1257 = LINE('',#1258,#1259);
#1258 = CARTESIAN_POINT('',(0.,-0.));
#1259 = VECTOR('',#1260,1.);
#1260 = DIRECTION('',(0.,1.));
#1261 = ( GEOMETRIC_REPRESENTATION_CONTEXT(2) 
PARAMETRIC_REPRESENTATION_CONTEXT() REPRESENTATION_CONTEXT('2D SPACE',''
  ) );
#1262 = ORIENTED_EDGE('',*,*,#371,.T.);
#1263 = ORIENTED_EDGE('',*,*,#1242,.T.);
#1264 = ORIENTED_EDGE('',*,*,#881,.T.);
#1265 = FACE_BOUND('',#1266,.F.);
#1266 = EDGE_LOOP('',(#1267));
#1267 = ORIENTED_EDGE('',*,*,#1268,.F.);
#1268 = EDGE_CURVE('',#1269,#1269,#1271,.T.);
#1269 = VERTEX_POINT('',#1270);
#1270 = CARTESIAN_POINT('',(1.967231557291,1.7,7.));
#1271 = SURFACE_CURVE('',#1272,(#1380,#1491),.PCURVE_S1.);
#1272 = B_SPLINE_CURVE_WITH_KNOTS('',6,(#1273,#1274,#1275,#1276,#1277,
    #1278,#1279,#1280,#1281,#1282,#1283,#1284,#1285,#1286,#1287,#1288,
    #1289,#1290,#1291,#1292,#1293,#1294,#1295,#1296,#1297,#1298,#1299,
    #1300,#1301,#1302,#1303,#1304,#1305,#1306,#1307,#1308,#1309,#1310,
    #1311,#1312,#1313,#1314,#1315,#1316,#1317,#1318,#1319,#1320,#1321,
    #1322,#1323,#1324,#1325,#1326,#1327,#1328,#1329,#1330,#1331,#1332,
    #1333,#1334,#1335,#1336,#1337,#1338,#1339,#1340,#1341,#1342,#1343,
    #1344,#1345,#1346,#1347,#1348,#1349,#1350,#1351,#1352,#1353,#1354,
    #1355,#1356,#1357,#1358,#1359,#1360,#1361,#1362,#1363,#1364,#1365,
    #1366,#1367,#1368,#1369,#1370,#1371,#1372,#1373,#1374,#1375,#1376,
    #1377,#1378,#1379),.UNSPECIFIED.,.T.,.F.,(7,5,5,5,5,5,5,5,5,5,5,5,5,
    5,5,5,5,5,5,5,5,7),(0.,5.091334883174E-02,0.105441019427,
    0.165036857012,0.212697381301,0.249399604131,0.308255958967,
    0.334180812114,0.39369121833,0.448685742218,0.499525532608,
    0.532923823454,0.550573265221,0.605199948402,0.664903995716,
    0.712651063721,0.749419931797,0.808383160185,0.834355084339,
    0.893973539582,0.949067908077,1.),.UNSPECIFIED.);
#1273 = CARTESIAN_POINT('',(1.967231557291,1.7,7.));
#1274 = CARTESIAN_POINT('',(1.967231557291,1.7,7.08516911656));
#1275 = CARTESIAN_POINT('',(1.971656268422,1.694879729769,7.170201615163
    ));
#1276 = CARTESIAN_POINT('',(1.980479420148,1.684669697764,7.254726031867
    ));
#1277 = CARTESIAN_POINT('',(1.993470072193,1.669434772367,7.338355897311
    ));
#1278 = CARTESIAN_POINT('',(2.010192009722,1.649284344609,7.420657150514
    ));
#1279 = CARTESIAN_POINT('',(2.051329618941,1.597875514974,7.587305439612
    ));
#1280 = CARTESIAN_POINT('',(2.076226998778,1.565906232346,7.67146149844)
  );
#1281 = CARTESIAN_POINT('',(2.104152952775,1.528682284267,7.753451347157
    ));
#1282 = CARTESIAN_POINT('',(2.13447606929,1.486276193135,7.833086452398)
  );
#1283 = CARTESIAN_POINT('',(2.166548869134,1.438728452474,7.910127215717
    ));
#1284 = CARTESIAN_POINT('',(2.235991458785,1.328521468494,8.065321930616
    ));
#1285 = CARTESIAN_POINT('',(2.273614787615,1.264806054715,8.143001008504
    ));
#1286 = CARTESIAN_POINT('',(2.311829564521,1.194835390086,8.217068599232
    ));
#1287 = CARTESIAN_POINT('',(2.349865202027,1.118433364827,8.287139503335
    ));
#1288 = CARTESIAN_POINT('',(2.386892909575,1.035396055565,8.352643102468
    ));
#1289 = CARTESIAN_POINT('',(2.450021174029,0.873696730756,8.460866011593
    ));
#1290 = CARTESIAN_POINT('',(2.47688029626,0.79734812943,8.505615404225)
  );
#1291 = CARTESIAN_POINT('',(2.501964261685,0.716616399869,8.546431427844
    ));
#1292 = CARTESIAN_POINT('',(2.524683315612,0.631672129947,8.582723357158
    ));
#1293 = CARTESIAN_POINT('',(2.544458136961,0.542747063419,8.613892453832
    ));
#1294 = CARTESIAN_POINT('',(2.573273800651,0.378820745173,8.658904570241
    ));
#1295 = CARTESIAN_POINT('',(2.583731673661,0.305351403514,8.675074393575
    ));
#1296 = CARTESIAN_POINT('',(2.591800722789,0.230215890347,8.687460678788
    ));
#1297 = CARTESIAN_POINT('',(2.597262978683,0.153926251663,8.695813543765
    ));
#1298 = CARTESIAN_POINT('',(2.6,7.700997451039E-02,8.7));
#1299 = CARTESIAN_POINT('',(2.6,-0.123494601587,8.7));
#1300 = CARTESIAN_POINT('',(2.59296092,-0.246198948186,8.689234619076));
#1301 = CARTESIAN_POINT('',(2.579052982194,-0.366341496484,
    8.667962369743));
#1302 = CARTESIAN_POINT('',(2.558969207391,-0.482194406015,
    8.636956514892));
#1303 = CARTESIAN_POINT('',(2.53391059194,-0.592169757779,8.597500700264
    ));
#1304 = CARTESIAN_POINT('',(2.492861587513,-0.740166673311,
    8.531212658822));
#1305 = CARTESIAN_POINT('',(2.47959910464,-0.784173796446,8.509599980736
    ));
#1306 = CARTESIAN_POINT('',(2.465716133629,-0.826918001093,
    8.486735911287));
#1307 = CARTESIAN_POINT('',(2.451300474665,-0.868388617833,
    8.462707051462));
#1308 = CARTESIAN_POINT('',(2.436437918428,-0.908579057708,
    8.437595229864));
#1309 = CARTESIAN_POINT('',(2.386261770583,-1.036799421365,
    8.351524354919));
#1310 = CARTESIAN_POINT('',(2.349391609707,-1.119367079346,
    8.286261453567));
#1311 = CARTESIAN_POINT('',(2.31153087887,-1.195362021079,8.216478698449
    ));
#1312 = CARTESIAN_POINT('',(2.273496531617,-1.264985453497,
    8.142737583574));
#1313 = CARTESIAN_POINT('',(2.236048514052,-1.328410991621,
    8.065417616353));
#1314 = CARTESIAN_POINT('',(2.166581006413,-1.438695751724,
    7.910228264873));
#1315 = CARTESIAN_POINT('',(2.134332365749,-1.486499325602,
    7.832772147446));
#1316 = CARTESIAN_POINT('',(2.103854033426,-1.529108037966,
    7.752692443087));
#1317 = CARTESIAN_POINT('',(2.075800832424,-1.566475753479,
    7.670234906133));
#1318 = CARTESIAN_POINT('',(2.050818795514,-1.59853200484,7.585592130532
    ));
#1319 = CARTESIAN_POINT('',(2.00980923232,-1.649745485374,7.418768500853
    ));
#1320 = CARTESIAN_POINT('',(1.993232274859,-1.669713649257,
    7.336821369618));
#1321 = CARTESIAN_POINT('',(1.980358146016,-1.68481003361,7.253562397737
    ));
#1322 = CARTESIAN_POINT('',(1.971615620121,-1.694926768323,
    7.169420252589));
#1323 = CARTESIAN_POINT('',(1.967231557291,-1.7,7.084776992051));
#1324 = CARTESIAN_POINT('',(1.967231557291,-1.7,6.944307271609));
#1325 = CARTESIAN_POINT('',(1.969123412013,-1.697810549343,
    6.888634629236));
#1326 = CARTESIAN_POINT('',(1.972905300167,-1.693434746626,
    6.833102790292));
#1327 = CARTESIAN_POINT('',(1.978532206423,-1.686885791841,
    6.777839092779));
#1328 = CARTESIAN_POINT('',(1.985918508572,-1.678191166945,
    6.722977314716));
#1329 = CARTESIAN_POINT('',(1.999708301274,-1.661692504737,
    6.639951997089));
#1330 = CARTESIAN_POINT('',(2.004934216105,-1.655400313108,
    6.611390583053));
#1331 = CARTESIAN_POINT('',(2.010601092378,-1.648525654256,
    6.582988808611));
#1332 = CARTESIAN_POINT('',(2.016690408775,-1.641073942747,
    6.554760764719));
#1333 = CARTESIAN_POINT('',(2.023182339448,-1.633050594994,
    6.526719076136));
#1334 = CARTESIAN_POINT('',(2.051329618941,-1.597875514974,
    6.412694560388));
#1335 = CARTESIAN_POINT('',(2.076226998778,-1.565906232346,6.32853850156
    ));
#1336 = CARTESIAN_POINT('',(2.104152952775,-1.528682284267,
    6.246548652843));
#1337 = CARTESIAN_POINT('',(2.13447606929,-1.486276193135,6.166913547602
    ));
#1338 = CARTESIAN_POINT('',(2.166548869134,-1.438728452474,
    6.089872784283));
#1339 = CARTESIAN_POINT('',(2.235991455292,-1.328521474038,5.93467807719
    ));
#1340 = CARTESIAN_POINT('',(2.273614793478,-1.264806043066,
    5.856998979778));
#1341 = CARTESIAN_POINT('',(2.311829564337,-1.194835392116,
    5.782931400243));
#1342 = CARTESIAN_POINT('',(2.349865196065,-1.11843337745,5.71286050816)
  );
#1343 = CARTESIAN_POINT('',(2.386892913432,-1.035396045686,5.64735689092
    ));
#1344 = CARTESIAN_POINT('',(2.450021174029,-0.873696730756,
    5.539133988407));
#1345 = CARTESIAN_POINT('',(2.47688029626,-0.79734812943,5.494384595775)
  );
#1346 = CARTESIAN_POINT('',(2.501964261685,-0.716616399869,
    5.453568572156));
#1347 = CARTESIAN_POINT('',(2.524683315612,-0.631672129947,
    5.417276642842));
#1348 = CARTESIAN_POINT('',(2.544458136961,-0.542747063419,
    5.386107546168));
#1349 = CARTESIAN_POINT('',(2.573273800655,-0.37882074515,5.341095429753
    ));
#1350 = CARTESIAN_POINT('',(2.583731673658,-0.30535140352,5.324925606429
    ));
#1351 = CARTESIAN_POINT('',(2.591800722787,-0.230215890371,
    5.312539321215));
#1352 = CARTESIAN_POINT('',(2.597262978684,-0.15392625167,5.304186456232
    ));
#1353 = CARTESIAN_POINT('',(2.6,-7.700997448578E-02,5.3));
#1354 = CARTESIAN_POINT('',(2.6,0.123494601587,5.3));
#1355 = CARTESIAN_POINT('',(2.59296092,0.246198948186,5.310765380924));
#1356 = CARTESIAN_POINT('',(2.579052982194,0.366341496484,5.332037630257
    ));
#1357 = CARTESIAN_POINT('',(2.558969207391,0.482194406015,5.363043485108
    ));
#1358 = CARTESIAN_POINT('',(2.53391059194,0.592169757779,5.402499299736)
  );
#1359 = CARTESIAN_POINT('',(2.492861589592,0.740166665815,5.46878733782)
  );
#1360 = CARTESIAN_POINT('',(2.479599103952,0.784173797597,5.4904000205)
  );
#1361 = CARTESIAN_POINT('',(2.465716131402,0.826918007839,5.513264092429
    ));
#1362 = CARTESIAN_POINT('',(2.451300474116,0.868388620375,5.537292949368
    ));
#1363 = CARTESIAN_POINT('',(2.436437920681,0.908579051951,5.562404766271
    ));
#1364 = CARTESIAN_POINT('',(2.38626176676,1.036799431135,5.648475651639)
  );
#1365 = CARTESIAN_POINT('',(2.349391615581,1.119367067071,5.713738535035
    ));
#1366 = CARTESIAN_POINT('',(2.311530879064,1.195362019092,5.783521302023
    ));
#1367 = CARTESIAN_POINT('',(2.273496525845,1.264985464852,5.857262428011
    ));
#1368 = CARTESIAN_POINT('',(2.236048517484,1.328410986172,5.93458237598)
  );
#1369 = CARTESIAN_POINT('',(2.166581006413,1.438695751724,6.089771735127
    ));
#1370 = CARTESIAN_POINT('',(2.134332365749,1.486499325602,6.167227852554
    ));
#1371 = CARTESIAN_POINT('',(2.103854033426,1.529108037966,6.247307556913
    ));
#1372 = CARTESIAN_POINT('',(2.075800832423,1.566475753479,6.329765093868
    ));
#1373 = CARTESIAN_POINT('',(2.050818795514,1.59853200484,6.414407869468)
  );
#1374 = CARTESIAN_POINT('',(2.00980923232,1.649745485374,6.581231499147)
  );
#1375 = CARTESIAN_POINT('',(1.993232274859,1.669713649257,6.663178630382
    ));
#1376 = CARTESIAN_POINT('',(1.980358146016,1.68481003361,6.746437602263)
  );
#1377 = CARTESIAN_POINT('',(1.971615620121,1.694926768323,6.830579747411
    ));
#1378 = CARTESIAN_POINT('',(1.967231557291,1.7,6.915223007949));
#1379 = CARTESIAN_POINT('',(1.967231557291,1.7,7.));
#1380 = PCURVE('',#392,#1381);
#1381 = DEFINITIONAL_REPRESENTATION('',(#1382),#1490);
#1382 = B_SPLINE_CURVE_WITH_KNOTS('',6,(#1383,#1384,#1385,#1386,#1387,
    #1388,#1389,#1390,#1391,#1392,#1393,#1394,#1395,#1396,#1397,#1398,
    #1399,#1400,#1401,#1402,#1403,#1404,#1405,#1406,#1407,#1408,#1409,
    #1410,#1411,#1412,#1413,#1414,#1415,#1416,#1417,#1418,#1419,#1420,
    #1421,#1422,#1423,#1424,#1425,#1426,#1427,#1428,#1429,#1430,#1431,
    #1432,#1433,#1434,#1435,#1436,#1437,#1438,#1439,#1440,#1441,#1442,
    #1443,#1444,#1445,#1446,#1447,#1448,#1449,#1450,#1451,#1452,#1453,
    #1454,#1455,#1456,#1457,#1458,#1459,#1460,#1461,#1462,#1463,#1464,
    #1465,#1466,#1467,#1468,#1469,#1470,#1471,#1472,#1473,#1474,#1475,
    #1476,#1477,#1478,#1479,#1480,#1481,#1482,#1483,#1484,#1485,#1486,
    #1487,#1488,#1489),.UNSPECIFIED.,.T.,.F.,(7,5,5,5,5,5,5,5,5,5,5,5,5,
    5,5,5,5,5,5,5,5,7),(0.,5.091334883174E-02,0.105441019427,
    0.165036857012,0.212697381301,0.249399604131,0.308255958967,
    0.334180812114,0.39369121833,0.448685742218,0.499525532608,
    0.532923823454,0.550573265221,0.605199948402,0.664903995716,
    0.712651063721,0.749419931797,0.808383160185,0.834355084339,
    0.893973539582,0.949067908077,1.),.UNSPECIFIED.);
#1383 = CARTESIAN_POINT('',(2.428936025572,7.));
#1384 = CARTESIAN_POINT('',(2.428936025572,6.91483088344));
#1385 = CARTESIAN_POINT('',(2.431538785293,6.829798384837));
#1386 = CARTESIAN_POINT('',(2.436728929218,6.745273968133));
#1387 = CARTESIAN_POINT('',(2.444429146055,6.661644102689));
#1388 = CARTESIAN_POINT('',(2.454498746078,6.579342849486));
#1389 = CARTESIAN_POINT('',(2.479822597175,6.412694560388));
#1390 = CARTESIAN_POINT('',(2.495406108027,6.32853850156));
#1391 = CARTESIAN_POINT('',(2.513299282708,6.246548652843));
#1392 = CARTESIAN_POINT('',(2.533340706673,6.166913547602));
#1393 = CARTESIAN_POINT('',(2.555389060077,6.089872784283));
#1394 = CARTESIAN_POINT('',(2.605489333163,5.934678069384));
#1395 = CARTESIAN_POINT('',(2.633936704656,5.856998991496));
#1396 = CARTESIAN_POINT('',(2.664573619273,5.782931400768));
#1397 = CARTESIAN_POINT('',(2.697358451261,5.712860496665));
#1398 = CARTESIAN_POINT('',(2.73228842847,5.647356897532));
#1399 = CARTESIAN_POINT('',(2.799051997683,5.539133988407));
#1400 = CARTESIAN_POINT('',(2.830163093441,5.494384595775));
#1401 = CARTESIAN_POINT('',(2.86264304353,5.453568572156));
#1402 = CARTESIAN_POINT('',(2.896418712748,5.417276642842));
#1403 = CARTESIAN_POINT('',(2.931420878271,5.386107546168));
#1404 = CARTESIAN_POINT('',(2.995436155071,5.341095429759));
#1405 = CARTESIAN_POINT('',(3.023963288774,5.324925606425));
#1406 = CARTESIAN_POINT('',(3.053001246347,5.312539321212));
#1407 = CARTESIAN_POINT('',(3.082390287875,5.304186456235));
#1408 = CARTESIAN_POINT('',(3.111973432624,5.3));
#1409 = CARTESIAN_POINT('',(3.189090577277,5.3));
#1410 = CARTESIAN_POINT('',(3.236284639488,5.310765380924));
#1411 = CARTESIAN_POINT('',(3.282685800606,5.332037630257));
#1412 = CARTESIAN_POINT('',(3.327811938093,5.363043485108));
#1413 = CARTESIAN_POINT('',(3.37114740314,5.402499299736));
#1414 = CARTESIAN_POINT('',(3.430218250899,5.468787341178));
#1415 = CARTESIAN_POINT('',(3.447891711621,5.490400019264));
#1416 = CARTESIAN_POINT('',(3.465171412941,5.513264088713));
#1417 = CARTESIAN_POINT('',(3.482052778423,5.537292948538));
#1418 = CARTESIAN_POINT('',(3.498530874214,5.562404770136));
#1419 = CARTESIAN_POINT('',(3.551487967861,5.648475645081));
#1420 = CARTESIAN_POINT('',(3.586228960958,5.713738546433));
#1421 = CARTESIAN_POINT('',(3.618844281472,5.783521301551));
#1422 = CARTESIAN_POINT('',(3.649331090651,5.857262416426));
#1423 = CARTESIAN_POINT('',(3.677648325502,5.934582383647));
#1424 = CARTESIAN_POINT('',(3.727779017019,6.089771735127));
#1425 = CARTESIAN_POINT('',(3.74994663332,6.167227852554));
#1426 = CARTESIAN_POINT('',(3.770085875232,6.247307556913));
#1427 = CARTESIAN_POINT('',(3.788052748648,6.329765093867));
#1428 = CARTESIAN_POINT('',(3.803682609236,6.414407869468));
#1429 = CARTESIAN_POINT('',(3.828917027539,6.581231499147));
#1430 = CARTESIAN_POINT('',(3.83889711408,6.663178630382));
#1431 = CARTESIAN_POINT('',(3.846527717125,6.746437602263));
#1432 = CARTESIAN_POINT('',(3.851670432263,6.830579747411));
#1433 = CARTESIAN_POINT('',(3.854249281608,6.915223007949));
#1434 = CARTESIAN_POINT('',(3.854249281608,7.055692728391));
#1435 = CARTESIAN_POINT('',(3.853136374952,7.111365370764));
#1436 = CARTESIAN_POINT('',(3.850911877188,7.166897209708));
#1437 = CARTESIAN_POINT('',(3.847591042372,7.222160907221));
#1438 = CARTESIAN_POINT('',(3.843203288965,7.277022685284));
#1439 = CARTESIAN_POINT('',(3.834933036457,7.360048002911));
#1440 = CARTESIAN_POINT('',(3.831787140752,7.388609416947));
#1441 = CARTESIAN_POINT('',(3.82836055511,7.417011191389));
#1442 = CARTESIAN_POINT('',(3.824659351971,7.445239235281));
#1443 = CARTESIAN_POINT('',(3.820689859739,7.473280923864));
#1444 = CARTESIAN_POINT('',(3.803362710004,7.587305439612));
#1445 = CARTESIAN_POINT('',(3.787779199152,7.67146149844));
#1446 = CARTESIAN_POINT('',(3.769886024471,7.753451347157));
#1447 = CARTESIAN_POINT('',(3.749844600507,7.833086452398));
#1448 = CARTESIAN_POINT('',(3.727796247102,7.910127215717));
#1449 = CARTESIAN_POINT('',(3.677695976537,8.06532192281));
#1450 = CARTESIAN_POINT('',(3.649248597488,8.143001020222));
#1451 = CARTESIAN_POINT('',(3.618611688638,8.217068599757));
#1452 = CARTESIAN_POINT('',(3.585826861306,8.28713949184));
#1453 = CARTESIAN_POINT('',(3.550896874631,8.35264310908));
#1454 = CARTESIAN_POINT('',(3.484133309496,8.460866011593));
#1455 = CARTESIAN_POINT('',(3.453022213739,8.505615404225));
#1456 = CARTESIAN_POINT('',(3.42054226365,8.546431427844));
#1457 = CARTESIAN_POINT('',(3.386766594431,8.582723357158));
#1458 = CARTESIAN_POINT('',(3.351764428909,8.613892453832));
#1459 = CARTESIAN_POINT('',(3.2877491521,8.658904570247));
#1460 = CARTESIAN_POINT('',(3.259222018408,8.675074393571));
#1461 = CARTESIAN_POINT('',(3.230184060842,8.687460678785));
#1462 = CARTESIAN_POINT('',(3.200795019307,8.695813543768));
#1463 = CARTESIAN_POINT('',(3.171211874546,8.7));
#1464 = CARTESIAN_POINT('',(3.094094729903,8.7));
#1465 = CARTESIAN_POINT('',(3.046900667691,8.689234619076));
#1466 = CARTESIAN_POINT('',(3.000499506574,8.667962369743));
#1467 = CARTESIAN_POINT('',(2.955373369087,8.636956514892));
#1468 = CARTESIAN_POINT('',(2.91203790404,8.597500700264));
#1469 = CARTESIAN_POINT('',(2.852967059273,8.53121266218));
#1470 = CARTESIAN_POINT('',(2.835293595055,8.5095999795));
#1471 = CARTESIAN_POINT('',(2.818013891503,8.486735907571));
#1472 = CARTESIAN_POINT('',(2.801132527761,8.462707050632));
#1473 = CARTESIAN_POINT('',(2.784654435344,8.437595233729));
#1474 = CARTESIAN_POINT('',(2.731697335283,8.351524348361));
#1475 = CARTESIAN_POINT('',(2.696956351474,8.286261464965));
#1476 = CARTESIAN_POINT('',(2.664341026427,8.216478697977));
#1477 = CARTESIAN_POINT('',(2.633854211611,8.142737571989));
#1478 = CARTESIAN_POINT('',(2.605536984155,8.06541762402));
#1479 = CARTESIAN_POINT('',(2.55540629016,7.910228264873));
#1480 = CARTESIAN_POINT('',(2.533238673859,7.832772147446));
#1481 = CARTESIAN_POINT('',(2.513099431948,7.752692443087));
#1482 = CARTESIAN_POINT('',(2.495132558532,7.670234906132));
#1483 = CARTESIAN_POINT('',(2.479502697944,7.585592130532));
#1484 = CARTESIAN_POINT('',(2.45426827964,7.418768500853));
#1485 = CARTESIAN_POINT('',(2.4442881931,7.336821369618));
#1486 = CARTESIAN_POINT('',(2.436657590055,7.253562397737));
#1487 = CARTESIAN_POINT('',(2.431514874916,7.169420252589));
#1488 = CARTESIAN_POINT('',(2.428936025572,7.084776992051));
#1489 = CARTESIAN_POINT('',(2.428936025572,7.));
#1490 = ( GEOMETRIC_REPRESENTATION_CONTEXT(2) 
PARAMETRIC_REPRESENTATION_CONTEXT() REPRESENTATION_CONTEXT('2D SPACE',''
  ) );
#1491 = PCURVE('',#1202,#1492);
#1492 = DEFINITIONAL_REPRESENTATION('',(#1493),#1601);
#1493 = B_SPLINE_CURVE_WITH_KNOTS('',6,(#1494,#1495,#1496,#1497,#1498,
    #1499,#1500,#1501,#1502,#1503,#1504,#1505,#1506,#1507,#1508,#1509,
    #1510,#1511,#1512,#1513,#1514,#1515,#1516,#1517,#1518,#1519,#1520,
    #1521,#1522,#1523,#1524,#1525,#1526,#1527,#1528,#1529,#1530,#1531,
    #1532,#1533,#1534,#1535,#1536,#1537,#1538,#1539,#1540,#1541,#1542,
    #1543,#1544,#1545,#1546,#1547,#1548,#1549,#1550,#1551,#1552,#1553,
    #1554,#1555,#1556,#1557,#1558,#1559,#1560,#1561,#1562,#1563,#1564,
    #1565,#1566,#1567,#1568,#1569,#1570,#1571,#1572,#1573,#1574,#1575,
    #1576,#1577,#1578,#1579,#1580,#1581,#1582,#1583,#1584,#1585,#1586,
    #1587,#1588,#1589,#1590,#1591,#1592,#1593,#1594,#1595,#1596,#1597,
    #1598,#1599,#1600),.UNSPECIFIED.,.F.,.F.,(7,5,5,5,5,5,5,5,5,5,5,5,5,
    5,5,5,5,5,5,5,5,7),(0.,5.091334883174E-02,0.105441019427,
    0.165036857012,0.212697381301,0.249399604131,0.308255958967,
    0.334180812114,0.39369121833,0.448685742218,0.499525532608,
    0.532923823454,0.550573265221,0.605199948402,0.664903995716,
    0.712651063721,0.749419931797,0.808383160185,0.834355084339,
    0.893973539582,0.949067908077,1.),.UNSPECIFIED.);
#1494 = CARTESIAN_POINT('',(0.,-1.967231557291));
#1495 = CARTESIAN_POINT('',(-5.009948032954E-02,-1.967231557291));
#1496 = CARTESIAN_POINT('',(-0.100118549555,-1.971656268422));
#1497 = CARTESIAN_POINT('',(-0.150065369271,-1.980479420148));
#1498 = CARTESIAN_POINT('',(-0.199934216509,-1.993470072193));
#1499 = CARTESIAN_POINT('',(-0.249689558527,-2.010192009722));
#1500 = CARTESIAN_POINT('',(-0.35227637723,-2.051329618941));
#1501 = CARTESIAN_POINT('',(-0.405123876643,-2.076226998778));
#1502 = CARTESIAN_POINT('',(-0.457933070117,-2.104152952775));
#1503 = CARTESIAN_POINT('',(-0.510845530605,-2.13447606929));
#1504 = CARTESIAN_POINT('',(-0.563988720282,-2.166548869134));
#1505 = CARTESIAN_POINT('',(-0.675955996226,-2.235991458785));
#1506 = CARTESIAN_POINT('',(-0.734911598317,-2.273614787615));
#1507 = CARTESIAN_POINT('',(-0.794626330228,-2.311829564521));
#1508 = CARTESIAN_POINT('',(-0.855362989764,-2.349865202027));
#1509 = CARTESIAN_POINT('',(-0.917387618964,-2.386892909575));
#1510 = CARTESIAN_POINT('',(-1.03184265343,-2.450021174029));
#1511 = CARTESIAN_POINT('',(-1.083806559497,-2.47688029626));
#1512 = CARTESIAN_POINT('',(-1.136863765851,-2.501964261685));
#1513 = CARTESIAN_POINT('',(-1.191024098556,-2.524683315612));
#1514 = CARTESIAN_POINT('',(-1.246320936188,-2.544458136961));
#1515 = CARTESIAN_POINT('',(-1.346317352105,-2.573273800651));
#1516 = CARTESIAN_POINT('',(-1.390510607415,-2.583731673661));
#1517 = CARTESIAN_POINT('',(-1.435207928786,-2.591800722789));
#1518 = CARTESIAN_POINT('',(-1.480251442551,-2.597262978683));
#1519 = CARTESIAN_POINT('',(-1.525496341789,-2.6));
#1520 = CARTESIAN_POINT('',(-1.643440210081,-2.6));
#1521 = CARTESIAN_POINT('',(-1.715619163154,-2.59296092));
#1522 = CARTESIAN_POINT('',(-1.786981669097,-2.579052982194));
#1523 = CARTESIAN_POINT('',(-1.857155222863,-2.558969207391));
#1524 = CARTESIAN_POINT('',(-1.925682196597,-2.53391059194));
#1525 = CARTESIAN_POINT('',(-2.021072836612,-2.492861587513));
#1526 = CARTESIAN_POINT('',(-2.049894850422,-2.47959910464));
#1527 = CARTESIAN_POINT('',(-2.078384135507,-2.465716133629));
#1528 = CARTESIAN_POINT('',(-2.106553836586,-2.451300474665));
#1529 = CARTESIAN_POINT('',(-2.134415923373,-2.436437918428));
#1530 = CARTESIAN_POINT('',(-2.225257161304,-2.386261770583));
#1531 = CARTESIAN_POINT('',(-2.286980101436,-2.349391609707));
#1532 = CARTESIAN_POINT('',(-2.347429190482,-2.31153087887));
#1533 = CARTESIAN_POINT('',(-2.406867051438,-2.273496531617));
#1534 = CARTESIAN_POINT('',(-2.465553135693,-2.236048514052));
#1535 = CARTESIAN_POINT('',(-2.57754433518,-2.166581006413));
#1536 = CARTESIAN_POINT('',(-2.630972836618,-2.134332365749));
#1537 = CARTESIAN_POINT('',(-2.684169133743,-2.103854033426));
#1538 = CARTESIAN_POINT('',(-2.737261682265,-2.075800832424));
#1539 = CARTESIAN_POINT('',(-2.790393108475,-2.050818795514));
#1540 = CARTESIAN_POINT('',(-2.893044707915,-2.00980923232));
#1541 = CARTESIAN_POINT('',(-2.942573427339,-1.993232274859));
#1542 = CARTESIAN_POINT('',(-2.992214892105,-1.980358146016));
#1543 = CARTESIAN_POINT('',(-3.041933727705,-1.971615620121));
#1544 = CARTESIAN_POINT('',(-3.091723834736,-1.967231557291));
#1545 = CARTESIAN_POINT('',(-3.174353082055,-1.967231557291));
#1546 = CARTESIAN_POINT('',(-3.207101718274,-1.969123412013));
#1547 = CARTESIAN_POINT('',(-3.23983073106,-1.972905300167));
#1548 = CARTESIAN_POINT('',(-3.272528480118,-1.978532206423));
#1549 = CARTESIAN_POINT('',(-3.305178027342,-1.985918508572));
#1550 = CARTESIAN_POINT('',(-3.354971403945,-1.999708301274));
#1551 = CARTESIAN_POINT('',(-3.372171432667,-2.004934216105));
#1552 = CARTESIAN_POINT('',(-3.389355322307,-2.010601092378));
#1553 = CARTESIAN_POINT('',(-3.406523417025,-2.016690408775));
#1554 = CARTESIAN_POINT('',(-3.423676817098,-2.023182339448));
#1555 = CARTESIAN_POINT('',(-3.49386903082,-2.051329618941));
#1556 = CARTESIAN_POINT('',(-3.546716530233,-2.076226998778));
#1557 = CARTESIAN_POINT('',(-3.599525723707,-2.104152952775));
#1558 = CARTESIAN_POINT('',(-3.652438184195,-2.13447606929));
#1559 = CARTESIAN_POINT('',(-3.705581373872,-2.166548869134));
#1560 = CARTESIAN_POINT('',(-3.817548644184,-2.235991455292));
#1561 = CARTESIAN_POINT('',(-3.876504261763,-2.273614793478));
#1562 = CARTESIAN_POINT('',(-3.936218983167,-2.311829564337));
#1563 = CARTESIAN_POINT('',(-3.996955633175,-2.349865196065));
#1564 = CARTESIAN_POINT('',(-4.058980279547,-2.386892913432));
#1565 = CARTESIAN_POINT('',(-4.17343530702,-2.450021174029));
#1566 = CARTESIAN_POINT('',(-4.225399213087,-2.47688029626));
#1567 = CARTESIAN_POINT('',(-4.278456419441,-2.501964261685));
#1568 = CARTESIAN_POINT('',(-4.332616752146,-2.524683315612));
#1569 = CARTESIAN_POINT('',(-4.387913589777,-2.544458136961));
#1570 = CARTESIAN_POINT('',(-4.487910005709,-2.573273800655));
#1571 = CARTESIAN_POINT('',(-4.532103261002,-2.583731673658));
#1572 = CARTESIAN_POINT('',(-4.576800582362,-2.591800722787));
#1573 = CARTESIAN_POINT('',(-4.621844096137,-2.597262978684));
#1574 = CARTESIAN_POINT('',(-4.667088995393,-2.6));
#1575 = CARTESIAN_POINT('',(-4.785032863671,-2.6));
#1576 = CARTESIAN_POINT('',(-4.857211816744,-2.59296092));
#1577 = CARTESIAN_POINT('',(-4.928574322687,-2.579052982194));
#1578 = CARTESIAN_POINT('',(-4.998747876452,-2.558969207391));
#1579 = CARTESIAN_POINT('',(-5.067274850187,-2.53391059194));
#1580 = CARTESIAN_POINT('',(-5.16266548537,-2.492861589592));
#1581 = CARTESIAN_POINT('',(-5.191487504958,-2.479599103952));
#1582 = CARTESIAN_POINT('',(-5.219976793641,-2.465716131402));
#1583 = CARTESIAN_POINT('',(-5.248146491724,-2.451300474116));
#1584 = CARTESIAN_POINT('',(-5.276008572884,-2.436437920681));
#1585 = CARTESIAN_POINT('',(-5.366849821815,-2.38626176676));
#1586 = CARTESIAN_POINT('',(-5.428572745039,-2.349391615581));
#1587 = CARTESIAN_POINT('',(-5.48902184342,-2.311530879064));
#1588 = CARTESIAN_POINT('',(-5.5484597147,-2.273496525845));
#1589 = CARTESIAN_POINT('',(-5.607145783749,-2.236048517484));
#1590 = CARTESIAN_POINT('',(-5.71913698877,-2.166581006413));
#1591 = CARTESIAN_POINT('',(-5.772565490208,-2.134332365749));
#1592 = CARTESIAN_POINT('',(-5.825761787333,-2.103854033426));
#1593 = CARTESIAN_POINT('',(-5.878854335855,-2.075800832423));
#1594 = CARTESIAN_POINT('',(-5.931985762065,-2.050818795514));
#1595 = CARTESIAN_POINT('',(-6.034637361505,-2.00980923232));
#1596 = CARTESIAN_POINT('',(-6.084166080929,-1.993232274859));
#1597 = CARTESIAN_POINT('',(-6.133807545695,-1.980358146016));
#1598 = CARTESIAN_POINT('',(-6.183526381294,-1.971615620121));
#1599 = CARTESIAN_POINT('',(-6.233316488326,-1.967231557291));
#1600 = CARTESIAN_POINT('',(-6.28318530718,-1.967231557291));
#1601 = ( GEOMETRIC_REPRESENTATION_CONTEXT(2) 
PARAMETRIC_REPRESENTATION_CONTEXT() REPRESENTATION_CONTEXT('2D SPACE',''
  ) );
#1602 = ADVANCED_FACE('',(#1603),#1202,.F.);
#1603 = FACE_BOUND('',#1604,.T.);
#1604 = EDGE_LOOP('',(#1605,#1606,#1627,#1628));
#1605 = ORIENTED_EDGE('',*,*,#1268,.F.);
#1606 = ORIENTED_EDGE('',*,*,#1607,.T.);
#1607 = EDGE_CURVE('',#1269,#1182,#1608,.T.);
#1608 = SEAM_CURVE('',#1609,(#1613,#1620),.PCURVE_S1.);
#1609 = LINE('',#1610,#1611);
#1610 = CARTESIAN_POINT('',(0.,1.7,7.));
#1611 = VECTOR('',#1612,1.);
#1612 = DIRECTION('',(1.,0.,0.));
#1613 = PCURVE('',#1202,#1614);
#1614 = DEFINITIONAL_REPRESENTATION('',(#1615),#1619);
#1615 = LINE('',#1616,#1617);
#1616 = CARTESIAN_POINT('',(-6.28318530718,0.));
#1617 = VECTOR('',#1618,1.);
#1618 = DIRECTION('',(-0.,-1.));
#1619 = ( GEOMETRIC_REPRESENTATION_CONTEXT(2) 
PARAMETRIC_REPRESENTATION_CONTEXT() REPRESENTATION_CONTEXT('2D SPACE',''
  ) );
#1620 = PCURVE('',#1202,#1621);
#1621 = DEFINITIONAL_REPRESENTATION('',(#1622),#1626);
#1622 = LINE('',#1623,#1624);
#1623 = CARTESIAN_POINT('',(-0.,0.));
#1624 = VECTOR('',#1625,1.);
#1625 = DIRECTION('',(-0.,-1.));
#1626 = ( GEOMETRIC_REPRESENTATION_CONTEXT(2) 
PARAMETRIC_REPRESENTATION_CONTEXT() REPRESENTATION_CONTEXT('2D SPACE',''
  ) );
#1627 = ORIENTED_EDGE('',*,*,#1181,.F.);
#1628 = ORIENTED_EDGE('',*,*,#1607,.F.);
#1629 = ( GEOMETRIC_REPRESENTATION_CONTEXT(3) 
GLOBAL_UNCERTAINTY_ASSIGNED_CONTEXT((#1633)) 
GLOBAL_UNIT_ASSIGNED_CONTEXT((#1630,#1631,#1632)) REPRESENTATION_CONTEXT
('Context #1','3D Context with UNIT and UNCERTAINTY') );
#1630 = ( LENGTH_UNIT() NAMED_UNIT(*) SI_UNIT(.MILLI.,.METRE.) );
#1631 = ( NAMED_UNIT(*) PLANE_ANGLE_UNIT() SI_UNIT($,.RADIAN.) );
#1632 = ( NAMED_UNIT(*) SI_UNIT($,.STERADIAN.) SOLID_ANGLE_UNIT() );
#1633 = UNCERTAINTY_MEASURE_WITH_UNIT(LENGTH_MEASURE(1.E-07),#1630,
  'distance_accuracy_value','confusion accuracy');
#1634 = PRODUCT_RELATED_PRODUCT_CATEGORY('part',$,(#7));
ENDSEC;
END-ISO-10303-21;
