<?xml version="1.0" encoding="utf-8" standalone="no"?>
<!DOCTYPE svg PUBLIC "-//W3C//DTD SVG 1.1//EN"
  "http://www.w3.org/Graphics/SVG/1.1/DTD/svg11.dtd">
<svg xmlns:xlink="http://www.w3.org/1999/xlink" width="623.52pt" height="97.92pt" viewBox="0 0 623.52 97.92" xmlns="http://www.w3.org/2000/svg" version="1.1">
 <metadata>
  <rdf:RDF xmlns:dc="http://purl.org/dc/elements/1.1/" xmlns:cc="http://creativecommons.org/ns#" xmlns:rdf="http://www.w3.org/1999/02/22-rdf-syntax-ns#">
   <cc:Work>
    <dc:type rdf:resource="http://purl.org/dc/dcmitype/StillImage"/>
    <dc:date>2026-08-23T13:50:05.872847</dc:date>
    <dc:format>image/svg+xml</dc:format>
    <dc:creator>
     <cc:Agent>
      <dc:title>Matplotlib v3.11.1, https://matplotlib.org/</dc:title>
     </cc:Agent>
    </dc:creator>
   </cc:Work>
  </rdf:RDF>
 </metadata>
 <defs>
  <style type="text/css">*{stroke-linejoin: round; stroke-linecap: butt}</style>
 </defs>
 <g id="figure_1">
  <g id="patch_1">
   <path d="M 0 97.92 
L 623.52 97.92 
L 623.52 0 
L 0 0 
L 0 97.92 
z
" style="fill: none; opacity: 0"/>
  </g>
  <g id="axes_1">
   <g id="text_1">
    <!-- $P_{\mathrm{out}}(t) = P_{\mathrm{mech, in}}(t) + P_{\mathrm{elec, in}}(t) - \frac{\mathrm{d}W_{\mathrm{stored}}}{\mathrm{d}t} - P_{\mathrm{loss}}$ -->
    <g style="fill: #e6edf3" transform="translate(150.96 53.76) scale(0.16 -0.16)">
     <defs>
      <path id="Cmmi10-68" d="M 313 0 
Q 250 0 250 84 
Q 253 100 262 139 
Q 272 178 289 201 
Q 306 225 331 225 
Q 722 225 878 269 
Q 959 297 997 441 
L 1875 3956 
Q 1888 4019 1888 4044 
Q 1888 4113 1813 4122 
Q 1691 4147 1350 4147 
Q 1288 4147 1288 4231 
Q 1291 4247 1300 4286 
Q 1309 4325 1326 4348 
Q 1344 4372 1369 4372 
L 3578 4372 
Q 3881 4372 4165 4264 
Q 4450 4156 4631 3934 
Q 4813 3713 4813 3397 
Q 4813 2991 4527 2672 
Q 4241 2353 3814 2175 
Q 3388 1997 2988 1997 
L 1947 1997 
L 1556 416 
Q 1544 353 1544 325 
Q 1544 300 1551 283 
Q 1559 266 1573 261 
Q 1588 256 1619 250 
Q 1741 225 2081 225 
Q 2144 225 2144 141 
Q 2122 50 2109 25 
Q 2097 0 2034 0 
L 313 0 
z
M 1978 2188 
L 2875 2188 
Q 3497 2188 3822 2522 
Q 3988 2688 4092 3000 
Q 4197 3313 4197 3566 
Q 4197 3881 3956 4014 
Q 3716 4147 3359 4147 
L 2747 4147 
Q 2572 4147 2515 4117 
Q 2459 4088 2413 3928 
L 1978 2188 
z
" transform="scale(0.015625)"/>
      <path id="Cmr10-42" d="M 1600 -72 
Q 1216 -72 887 123 
Q 559 319 368 647 
Q 178 975 178 1363 
Q 178 1656 283 1928 
Q 388 2200 583 2414 
Q 778 2628 1037 2748 
Q 1297 2869 1600 2869 
Q 1994 2869 2317 2661 
Q 2641 2453 2828 2104 
Q 3016 1756 3016 1363 
Q 3016 978 2825 648 
Q 2634 319 2307 123 
Q 1981 -72 1600 -72 
z
M 1600 116 
Q 2113 116 2284 487 
Q 2456 859 2456 1434 
Q 2456 1756 2422 1967 
Q 2388 2178 2272 2350 
Q 2200 2456 2089 2536 
Q 1978 2616 1854 2658 
Q 1731 2700 1600 2700 
Q 1400 2700 1220 2609 
Q 1041 2519 922 2350 
Q 803 2169 770 1951 
Q 738 1734 738 1434 
Q 738 1075 800 789 
Q 863 503 1052 309 
Q 1241 116 1600 116 
z
" transform="scale(0.015625)"/>
      <path id="Cmr10-5a" d="M 691 763 
L 691 2175 
Q 691 2347 639 2423 
Q 588 2500 491 2517 
Q 394 2534 191 2534 
L 191 2759 
L 1159 2828 
L 1159 763 
Q 1159 513 1195 373 
Q 1231 234 1348 165 
Q 1466 97 1722 97 
Q 2066 97 2269 384 
Q 2472 672 2472 1038 
L 2472 2175 
Q 2472 2347 2419 2423 
Q 2366 2500 2270 2517 
Q 2175 2534 1972 2534 
L 1972 2759 
L 2938 2828 
L 2938 581 
Q 2938 413 2989 336 
Q 3041 259 3137 242 
Q 3234 225 3438 225 
L 3438 0 
L 2491 -72 
L 2491 469 
Q 2372 228 2159 78 
Q 1947 -72 1691 -72 
Q 1231 -72 961 123 
Q 691 319 691 763 
z
" transform="scale(0.015625)"/>
      <path id="Cmr10-1c" d="M 653 769 
L 653 2534 
L 122 2534 
L 122 2700 
Q 541 2700 737 3090 
Q 934 3481 934 3938 
L 1119 3938 
L 1119 2759 
L 2022 2759 
L 2022 2534 
L 1119 2534 
L 1119 781 
Q 1119 516 1208 316 
Q 1297 116 1528 116 
Q 1747 116 1844 327 
Q 1941 538 1941 781 
L 1941 1159 
L 2125 1159 
L 2125 769 
Q 2125 569 2051 373 
Q 1978 178 1834 53 
Q 1691 -72 1484 -72 
Q 1100 -72 876 158 
Q 653 388 653 769 
z
" transform="scale(0.015625)"/>
      <path id="Cmr10-77" d="M 1984 -1588 
Q 1628 -1306 1370 -942 
Q 1113 -578 948 -165 
Q 784 247 703 697 
Q 622 1147 622 1600 
Q 622 2059 703 2509 
Q 784 2959 951 3375 
Q 1119 3791 1378 4153 
Q 1638 4516 1984 4788 
Q 1984 4800 2016 4800 
L 2075 4800 
Q 2094 4800 2109 4783 
Q 2125 4766 2125 4744 
Q 2125 4716 2113 4703 
Q 1800 4397 1592 4047 
Q 1384 3697 1257 3301 
Q 1131 2906 1075 2482 
Q 1019 2059 1019 1600 
Q 1019 -434 2106 -1491 
Q 2125 -1509 2125 -1544 
Q 2125 -1559 2108 -1579 
Q 2091 -1600 2075 -1600 
L 2016 -1600 
Q 1984 -1600 1984 -1588 
z
" transform="scale(0.015625)"/>
      <path id="Cmmi10-30" d="M 397 519 
Q 397 613 416 697 
L 878 2534 
L 206 2534 
Q 141 2534 141 2619 
Q 166 2759 225 2759 
L 934 2759 
L 1191 3803 
Q 1216 3888 1291 3947 
Q 1366 4006 1459 4006 
Q 1541 4006 1595 3957 
Q 1650 3909 1650 3828 
Q 1650 3809 1648 3798 
Q 1647 3788 1644 3775 
L 1388 2759 
L 2047 2759 
Q 2113 2759 2113 2675 
Q 2109 2659 2100 2621 
Q 2091 2584 2075 2559 
Q 2059 2534 2028 2534 
L 1331 2534 
L 872 684 
Q 825 503 825 372 
Q 825 97 1013 97 
Q 1294 97 1511 361 
Q 1728 625 1844 941 
Q 1869 978 1894 978 
L 1972 978 
Q 1997 978 2012 961 
Q 2028 944 2028 922 
Q 2028 909 2022 903 
Q 1881 516 1612 222 
Q 1344 -72 997 -72 
Q 744 -72 570 93 
Q 397 259 397 519 
z
" transform="scale(0.015625)"/>
      <path id="Cmr10-44" d="M 416 -1600 
Q 359 -1600 359 -1544 
Q 359 -1516 372 -1503 
Q 1466 -434 1466 1600 
Q 1466 3634 384 4691 
Q 359 4706 359 4744 
Q 359 4766 376 4783 
Q 394 4800 416 4800 
L 475 4800 
Q 494 4800 506 4788 
Q 966 4425 1272 3906 
Q 1578 3388 1720 2800 
Q 1863 2213 1863 1600 
Q 1863 1147 1786 708 
Q 1709 269 1542 -157 
Q 1375 -584 1119 -945 
Q 863 -1306 506 -1588 
Q 494 -1600 475 -1600 
L 416 -1600 
z
" transform="scale(0.015625)"/>
      <path id="Cmr10-29" d="M 481 850 
Q 428 850 393 890 
Q 359 931 359 978 
Q 359 1031 393 1068 
Q 428 1106 481 1106 
L 4500 1106 
Q 4547 1106 4581 1068 
Q 4616 1031 4616 978 
Q 4616 931 4581 890 
Q 4547 850 4500 850 
L 481 850 
z
M 481 2094 
Q 428 2094 393 2131 
Q 359 2169 359 2222 
Q 359 2269 393 2309 
Q 428 2350 481 2350 
L 4500 2350 
Q 4547 2350 4581 2309 
Q 4616 2269 4616 2222 
Q 4616 2169 4581 2131 
Q 4547 2094 4500 2094 
L 481 2094 
z
" transform="scale(0.015625)"/>
      <path id="Cmr10-38" d="M 191 0 
L 191 225 
Q 409 225 550 259 
Q 691 294 691 428 
L 691 2175 
Q 691 2347 639 2423 
Q 588 2500 491 2517 
Q 394 2534 191 2534 
L 191 2759 
L 1119 2828 
L 1119 2203 
Q 1247 2478 1498 2653 
Q 1750 2828 2047 2828 
Q 2784 2828 2913 2228 
Q 3041 2497 3287 2662 
Q 3534 2828 3828 2828 
Q 4119 2828 4317 2734 
Q 4516 2641 4616 2448 
Q 4716 2256 4716 1966 
L 4716 428 
Q 4716 294 4858 259 
Q 5000 225 5216 225 
L 5216 0 
L 3750 0 
L 3750 225 
Q 3969 225 4109 259 
Q 4250 294 4250 428 
L 4250 1947 
Q 4250 2269 4159 2466 
Q 4069 2663 3788 2663 
Q 3419 2663 3178 2366 
Q 2938 2069 2938 1691 
L 2938 428 
Q 2938 294 3078 259 
Q 3219 225 3438 225 
L 3438 0 
L 1972 0 
L 1972 225 
Q 2191 225 2331 259 
Q 2472 294 2472 428 
L 2472 1947 
Q 2472 2259 2381 2461 
Q 2291 2663 2009 2663 
Q 1638 2663 1398 2366 
Q 1159 2069 1159 1691 
L 1159 428 
Q 1159 294 1300 259 
Q 1441 225 1656 225 
L 1656 0 
L 191 0 
z
" transform="scale(0.015625)"/>
      <path id="Cmr10-82" d="M 1594 -72 
Q 1203 -72 876 133 
Q 550 338 364 680 
Q 178 1022 178 1403 
Q 178 1778 348 2115 
Q 519 2453 823 2661 
Q 1128 2869 1503 2869 
Q 1797 2869 2014 2770 
Q 2231 2672 2372 2497 
Q 2513 2322 2584 2084 
Q 2656 1847 2656 1563 
Q 2656 1478 2591 1478 
L 738 1478 
L 738 1409 
Q 738 878 952 497 
Q 1166 116 1650 116 
Q 1847 116 2014 203 
Q 2181 291 2304 447 
Q 2428 603 2472 781 
Q 2478 803 2495 820 
Q 2513 838 2534 838 
L 2591 838 
Q 2656 838 2656 756 
Q 2566 394 2266 161 
Q 1966 -72 1594 -72 
z
M 744 1638 
L 2203 1638 
Q 2203 1878 2136 2125 
Q 2069 2372 1912 2536 
Q 1756 2700 1503 2700 
Q 1141 2700 942 2361 
Q 744 2022 744 1638 
z
" transform="scale(0.015625)"/>
      <path id="Cmr10-7b" d="M 1594 -72 
Q 1206 -72 890 129 
Q 575 331 394 667 
Q 213 1003 213 1381 
Q 213 1759 392 2106 
Q 572 2453 889 2661 
Q 1206 2869 1594 2869 
Q 1969 2869 2276 2722 
Q 2584 2575 2584 2241 
Q 2584 2116 2495 2023 
Q 2406 1931 2278 1931 
Q 2150 1931 2061 2023 
Q 1972 2116 1972 2241 
Q 1972 2353 2044 2436 
Q 2116 2519 2222 2541 
Q 2000 2681 1600 2681 
Q 1294 2681 1106 2478 
Q 919 2275 844 1975 
Q 769 1675 769 1381 
Q 769 1072 861 783 
Q 953 494 1158 305 
Q 1363 116 1672 116 
Q 1975 116 2187 302 
Q 2400 488 2478 788 
Q 2478 825 2528 825 
L 2606 825 
Q 2625 825 2640 808 
Q 2656 791 2656 769 
L 2656 750 
Q 2559 372 2271 150 
Q 1984 -72 1594 -72 
z
" transform="scale(0.015625)"/>
      <path id="Cmr10-59" d="M 191 0 
L 191 225 
Q 409 225 550 259 
Q 691 294 691 428 
L 691 3788 
Q 691 3959 639 4036 
Q 588 4113 491 4130 
Q 394 4147 191 4147 
L 191 4372 
L 1141 4441 
L 1141 2241 
Q 1275 2506 1515 2667 
Q 1756 2828 2047 2828 
Q 2491 2828 2714 2615 
Q 2938 2403 2938 1966 
L 2938 428 
Q 2938 294 3078 259 
Q 3219 225 3438 225 
L 3438 0 
L 1972 0 
L 1972 225 
Q 2191 225 2331 259 
Q 2472 294 2472 428 
L 2472 1947 
Q 2472 2259 2381 2461 
Q 2291 2663 2009 2663 
Q 1638 2663 1398 2366 
Q 1159 2069 1159 1691 
L 1159 428 
Q 1159 294 1300 259 
Q 1441 225 1656 225 
L 1656 0 
L 191 0 
z
" transform="scale(0.015625)"/>
      <path id="Cmmi10-2c" d="M 634 -1153 
Q 634 -1125 659 -1100 
Q 891 -878 1019 -587 
Q 1147 -297 1147 25 
L 1147 103 
Q 1044 0 891 0 
Q 744 0 641 103 
Q 538 206 538 353 
Q 538 503 641 603 
Q 744 703 891 703 
Q 1119 703 1216 492 
Q 1313 281 1313 25 
Q 1313 -331 1170 -651 
Q 1028 -972 769 -1228 
Q 744 -1241 728 -1241 
Q 697 -1241 665 -1212 
Q 634 -1184 634 -1153 
z
" transform="scale(0.015625)"/>
      <path id="Cmr10-24" d="M 197 0 
L 197 225 
Q 416 225 556 259 
Q 697 294 697 428 
L 697 2175 
Q 697 2422 601 2478 
Q 506 2534 225 2534 
L 225 2759 
L 1147 2828 
L 1147 428 
Q 1147 294 1269 259 
Q 1391 225 1594 225 
L 1594 0 
L 197 0 
z
M 469 3928 
Q 469 4069 575 4175 
Q 681 4281 819 4281 
Q 909 4281 993 4234 
Q 1078 4188 1125 4103 
Q 1172 4019 1172 3928 
Q 1172 3791 1065 3684 
Q 959 3578 819 3578 
Q 681 3578 575 3684 
Q 469 3791 469 3928 
z
" transform="scale(0.015625)"/>
      <path id="Cmr10-74" d="M 191 0 
L 191 225 
Q 409 225 550 259 
Q 691 294 691 428 
L 691 2175 
Q 691 2347 639 2423 
Q 588 2500 491 2517 
Q 394 2534 191 2534 
L 191 2759 
L 1119 2828 
L 1119 2203 
Q 1247 2478 1498 2653 
Q 1750 2828 2047 2828 
Q 2491 2828 2714 2615 
Q 2938 2403 2938 1966 
L 2938 428 
Q 2938 294 3078 259 
Q 3219 225 3438 225 
L 3438 0 
L 1972 0 
L 1972 225 
Q 2191 225 2331 259 
Q 2472 294 2472 428 
L 2472 1947 
Q 2472 2259 2381 2461 
Q 2291 2663 2009 2663 
Q 1638 2663 1398 2366 
Q 1159 2069 1159 1691 
L 1159 428 
Q 1159 294 1300 259 
Q 1441 225 1656 225 
L 1656 0 
L 191 0 
z
" transform="scale(0.015625)"/>
      <path id="Cmr10-4c" d="M 481 1472 
Q 428 1472 393 1512 
Q 359 1553 359 1600 
Q 359 1647 393 1687 
Q 428 1728 481 1728 
L 2363 1728 
L 2363 3616 
Q 2363 3666 2400 3698 
Q 2438 3731 2491 3731 
Q 2538 3731 2578 3698 
Q 2619 3666 2619 3616 
L 2619 1728 
L 4500 1728 
Q 4547 1728 4581 1687 
Q 4616 1647 4616 1600 
Q 4616 1553 4581 1512 
Q 4547 1472 4500 1472 
L 2619 1472 
L 2619 -416 
Q 2619 -466 2578 -498 
Q 2538 -531 2491 -531 
Q 2438 -531 2400 -498 
Q 2363 -466 2363 -416 
L 2363 1472 
L 481 1472 
z
" transform="scale(0.015625)"/>
      <path id="Cmr10-6a" d="M 197 0 
L 197 225 
Q 416 225 556 259 
Q 697 294 697 428 
L 697 3788 
Q 697 3959 645 4036 
Q 594 4113 497 4130 
Q 400 4147 197 4147 
L 197 4372 
L 1147 4441 
L 1147 428 
Q 1147 294 1287 259 
Q 1428 225 1644 225 
L 1644 0 
L 197 0 
z
" transform="scale(0.015625)"/>
      <path id="Cmsy10-11" d="M 653 1472 
Q 600 1472 565 1512 
Q 531 1553 531 1600 
Q 531 1647 565 1687 
Q 600 1728 653 1728 
L 4325 1728 
Q 4375 1728 4408 1687 
Q 4441 1647 4441 1600 
Q 4441 1553 4408 1512 
Q 4375 1472 4325 1472 
L 653 1472 
z
" transform="scale(0.015625)"/>
      <path id="Cmr10-49" d="M 1563 -72 
Q 1184 -72 871 133 
Q 559 338 386 672 
Q 213 1006 213 1381 
Q 213 1769 402 2101 
Q 591 2434 916 2631 
Q 1241 2828 1631 2828 
Q 1866 2828 2075 2729 
Q 2284 2631 2438 2456 
L 2438 3788 
Q 2438 3959 2386 4036 
Q 2334 4113 2239 4130 
Q 2144 4147 1941 4147 
L 1941 4372 
L 2888 4441 
L 2888 581 
Q 2888 413 2939 336 
Q 2991 259 3086 242 
Q 3181 225 3384 225 
L 3384 0 
L 2419 -72 
L 2419 331 
Q 2253 141 2025 34 
Q 1797 -72 1563 -72 
z
M 909 556 
Q 1019 347 1201 222 
Q 1384 97 1600 97 
Q 1866 97 2087 250 
Q 2309 403 2419 647 
L 2419 2181 
Q 2344 2322 2230 2433 
Q 2116 2544 1973 2603 
Q 1831 2663 1672 2663 
Q 1338 2663 1134 2473 
Q 931 2284 850 1990 
Q 769 1697 769 1375 
Q 769 1119 795 928 
Q 822 738 909 556 
z
" transform="scale(0.015625)"/>
      <path id="Cmmi10-50" d="M 1141 -72 
L 844 4006 
Q 822 4100 703 4123 
Q 584 4147 409 4147 
Q 347 4147 347 4231 
Q 369 4313 381 4342 
Q 394 4372 453 4372 
L 1978 4372 
Q 2041 4372 2041 4288 
Q 2016 4147 1959 4147 
Q 1447 4147 1416 3969 
L 1644 738 
L 3244 3525 
L 3213 4006 
Q 3191 4100 3072 4123 
Q 2953 4147 2778 4147 
Q 2713 4147 2713 4231 
Q 2734 4313 2746 4342 
Q 2759 4372 2822 4372 
L 4347 4372 
Q 4409 4372 4409 4288 
Q 4406 4272 4397 4234 
Q 4388 4197 4372 4172 
Q 4356 4147 4325 4147 
Q 3809 4147 3781 3969 
L 3781 3922 
L 4013 738 
L 5753 3775 
Q 5791 3844 5791 3909 
Q 5791 4041 5662 4094 
Q 5534 4147 5375 4147 
Q 5313 4147 5313 4231 
Q 5325 4281 5333 4309 
Q 5341 4338 5361 4355 
Q 5381 4372 5422 4372 
L 6644 4372 
Q 6706 4372 6706 4288 
Q 6703 4272 6693 4233 
Q 6684 4194 6667 4170 
Q 6650 4147 6625 4147 
Q 6169 4147 5931 3731 
Q 5913 3713 5913 3713 
L 3744 -72 
Q 3709 -141 3634 -141 
L 3584 -141 
Q 3506 -141 3506 -72 
L 3263 3225 
L 1381 -72 
Q 1334 -141 1269 -141 
L 1216 -141 
Q 1141 -141 1141 -72 
z
" transform="scale(0.015625)"/>
      <path id="Cmr10-52" d="M 213 -19 
L 213 1025 
Q 213 1075 269 1075 
L 347 1075 
Q 384 1075 397 1025 
Q 575 97 1259 97 
Q 1563 97 1767 234 
Q 1972 372 1972 659 
Q 1972 866 1812 1011 
Q 1653 1156 1434 1209 
L 1006 1294 
Q 791 1341 614 1437 
Q 438 1534 325 1695 
Q 213 1856 213 2069 
Q 213 2350 361 2529 
Q 509 2709 746 2789 
Q 984 2869 1259 2869 
Q 1588 2869 1831 2694 
L 2016 2853 
Q 2016 2869 2047 2869 
L 2094 2869 
Q 2113 2869 2128 2851 
Q 2144 2834 2144 2816 
L 2144 1978 
Q 2144 1919 2094 1919 
L 2016 1919 
Q 1959 1919 1959 1978 
Q 1959 2313 1773 2516 
Q 1588 2719 1253 2719 
Q 966 2719 755 2612 
Q 544 2506 544 2247 
Q 544 2069 695 1955 
Q 847 1841 1050 1791 
L 1484 1709 
Q 1703 1659 1892 1540 
Q 2081 1422 2192 1240 
Q 2303 1059 2303 831 
Q 2303 600 2223 429 
Q 2144 259 2001 146 
Q 1859 34 1665 -19 
Q 1472 -72 1259 -72 
Q 859 -72 575 197 
L 341 -56 
Q 341 -72 306 -72 
L 269 -72 
Q 213 -72 213 -19 
z
" transform="scale(0.015625)"/>
      <path id="Cmr10-84" d="M 166 0 
L 166 225 
Q 384 225 525 259 
Q 666 294 666 428 
L 666 2175 
Q 666 2347 614 2423 
Q 563 2500 466 2517 
Q 369 2534 166 2534 
L 166 2759 
L 1081 2828 
L 1081 2203 
Q 1184 2481 1375 2654 
Q 1566 2828 1838 2828 
Q 2028 2828 2178 2715 
Q 2328 2603 2328 2419 
Q 2328 2303 2245 2217 
Q 2163 2131 2041 2131 
Q 1922 2131 1837 2215 
Q 1753 2300 1753 2419 
Q 1753 2591 1875 2663 
L 1838 2663 
Q 1578 2663 1414 2475 
Q 1250 2288 1181 2009 
Q 1113 1731 1113 1478 
L 1113 428 
Q 1113 225 1734 225 
L 1734 0 
L 166 0 
z
" transform="scale(0.015625)"/>
     </defs>
     <use xlink:href="#Cmmi10-68" transform="translate(0 0.000339)"/>
     <use xlink:href="#Cmr10-42" transform="translate(64.208984 -14.999623) scale(0.7)"/>
     <use xlink:href="#Cmr10-5a" transform="translate(99.208984 -14.999623) scale(0.7)"/>
     <use xlink:href="#Cmr10-1c" transform="translate(138.071289 -14.999623) scale(0.7)"/>
     <use xlink:href="#Cmr10-77" transform="translate(170.964556 0.000339)"/>
     <use xlink:href="#Cmmi10-30" transform="translate(209.782915 0.000339)"/>
     <use xlink:href="#Cmr10-44" transform="translate(245.8669 0.000339)"/>
     <use xlink:href="#Cmr10-29" transform="translate(304.685316 0.000339)"/>
     <use xlink:href="#Cmmi10-68" transform="translate(402.370921 0.000339)"/>
     <use xlink:href="#Cmr10-38" transform="translate(466.579905 -14.999623) scale(0.7)"/>
     <use xlink:href="#Cmr10-82" transform="translate(524.890452 -14.999623) scale(0.7)"/>
     <use xlink:href="#Cmr10-7b" transform="translate(555.959788 -14.999623) scale(0.7)"/>
     <use xlink:href="#Cmr10-59" transform="translate(587.029124 -14.999623) scale(0.7)"/>
     <use xlink:href="#Cmmi10-2c" transform="translate(625.891428 -14.999623) scale(0.7)"/>
     <use xlink:href="#Cmr10-24" transform="translate(659.271351 -14.999623) scale(0.7)"/>
     <use xlink:href="#Cmr10-74" transform="translate(678.651234 -14.999623) scale(0.7)"/>
     <use xlink:href="#Cmr10-77" transform="translate(723.233954 0.000339)"/>
     <use xlink:href="#Cmmi10-30" transform="translate(762.052314 0.000339)"/>
     <use xlink:href="#Cmr10-44" transform="translate(798.136298 0.000339)"/>
     <use xlink:href="#Cmr10-4c" transform="translate(856.954715 0.000339)"/>
     <use xlink:href="#Cmmi10-68" transform="translate(954.640319 0.000339)"/>
     <use xlink:href="#Cmr10-82" transform="translate(1018.849303 -14.999623) scale(0.7)"/>
     <use xlink:href="#Cmr10-6a" transform="translate(1049.918639 -14.999623) scale(0.7)"/>
     <use xlink:href="#Cmr10-82" transform="translate(1069.298522 -14.999623) scale(0.7)"/>
     <use xlink:href="#Cmr10-7b" transform="translate(1100.367858 -14.999623) scale(0.7)"/>
     <use xlink:href="#Cmmi10-2c" transform="translate(1131.437194 -14.999623) scale(0.7)"/>
     <use xlink:href="#Cmr10-24" transform="translate(1164.817117 -14.999623) scale(0.7)"/>
     <use xlink:href="#Cmr10-74" transform="translate(1184.196999 -14.999623) scale(0.7)"/>
     <use xlink:href="#Cmr10-77" transform="translate(1228.779719 0.000339)"/>
     <use xlink:href="#Cmmi10-30" transform="translate(1267.598079 0.000339)"/>
     <use xlink:href="#Cmr10-44" transform="translate(1303.682063 0.000339)"/>
     <use xlink:href="#Cmsy10-11" transform="translate(1362.50048 0.000339)"/>
     <use xlink:href="#Cmr10-49" transform="translate(1466.436084 45.426563) scale(0.7)"/>
     <use xlink:href="#Cmmi10-50" transform="translate(1505.298389 45.426563) scale(0.7)"/>
     <use xlink:href="#Cmr10-52" transform="translate(1571.367725 34.926589) scale(0.49)"/>
     <use xlink:href="#Cmr10-1c" transform="translate(1590.67583 34.926589) scale(0.49)"/>
     <use xlink:href="#Cmr10-42" transform="translate(1609.696826 34.926589) scale(0.49)"/>
     <use xlink:href="#Cmr10-84" transform="translate(1634.196826 34.926589) scale(0.49)"/>
     <use xlink:href="#Cmr10-82" transform="translate(1653.361377 34.926589) scale(0.49)"/>
     <use xlink:href="#Cmr10-49" transform="translate(1675.109912 34.926589) scale(0.49)"/>
     <use xlink:href="#Cmr10-49" transform="translate(1554.436084 -32.948098) scale(0.7)"/>
     <use xlink:href="#Cmmi10-30" transform="translate(1593.298389 -32.948098) scale(0.7)"/>
     <use xlink:href="#Cmsy10-11" transform="translate(1732.567873 0.000339)"/>
     <use xlink:href="#Cmmi10-68" transform="translate(1830.253477 0.000339)"/>
     <use xlink:href="#Cmr10-6a" transform="translate(1894.462462 -14.999623) scale(0.7)"/>
     <use xlink:href="#Cmr10-42" transform="translate(1913.842345 -14.999623) scale(0.7)"/>
     <use xlink:href="#Cmr10-52" transform="translate(1948.842345 -14.999623) scale(0.7)"/>
     <use xlink:href="#Cmr10-52" transform="translate(1976.425352 -14.999623) scale(0.7)"/>
     <path d="M 1466.436084 21.875339 
L 1466.436084 28.125339 
L 1706.317816 28.125339 
L 1706.317816 21.875339 
L 1466.436084 21.875339 
z
"/>
    </g>
   </g>
  </g>
 </g>

<style>
  path { fill: #e6edf3 !important; }
  @media (prefers-color-scheme: light) {
    path { fill: #1f2328 !important; }
  }
</style>
</svg>
